<?xml version="1.0" encoding="UTF-8"?>
<svg width="24px" height="24px" viewBox="0 0 24 24" version="1.1" xmlns="http://www.w3.org/2000/svg" xmlns:xlink="http://www.w3.org/1999/xlink">
    <title>Untitled 2</title>
    <g id="Page-1" stroke="none" stroke-width="1" fill="none" fill-rule="evenodd">
        <g id="iconfinder_77-behance_104426" fill="#000000" fill-rule="nonzero">
            <path d="M16.81488,10.68336 C15.29136,10.68336 15.07968,12.204 15.07968,12.204 L18.3187343,12.204 C18.3187343,12.204 18.33936,10.68336 16.81488,10.68336 Z" id="Path"></path>
            <path d="M9.46608,12.2039972 L6.59472,12.2039972 L6.59472,14.84016 L9.1368,14.84016 C9.18,14.84016 9.2448,14.84112 9.32064,14.84016 C9.7296,14.83056 10.5048,14.71152 10.5048,13.55856 C10.5048,12.19008 9.46608,12.2039972 9.46608,12.2039972 Z" id="Path"></path>
            <path d="M12.16704,0.04848 C5.63904,0.04848 0.34704,5.33952 0.34704,11.86752 C0.34704,18.39552 5.63904,23.68752 12.16704,23.68752 C18.69408,23.68752 23.98608,18.39552 23.98608,11.86752 C23.98608,5.34 18.6936,0.04848 12.16704,0.04848 Z M14.65488,7.31088 L18.72384,7.31088 L18.72384,8.52528 L14.65488,8.52528 L14.65488,7.31088 L14.65488,7.31088 Z M12.59808,13.68144 C12.59808,16.69152 9.46608,16.59216 9.46608,16.59216 L6.59472,16.59216 L6.51072,16.59216 L4.33392,16.59216 L4.33392,6.73008 L6.51072,6.73008 L6.59472,6.73008 L9.46608,6.73008 C11.02512,6.73008 12.25584,7.5912 12.25584,9.35568 C12.25584,11.12016 10.75104,11.23248 10.75104,11.23248 C12.73488,11.23248 12.59808,13.68144 12.59808,13.68144 Z M20.20992,13.52016 L15.09936,13.52016 C15.09936,15.35184 16.83456,15.23664 16.83456,15.23664 C18.47328,15.23664 18.41616,14.17536 18.41616,14.17536 L20.15232,14.17536 C20.15232,16.99152 16.77648,16.79856 16.77648,16.79856 C12.7272,16.79856 12.98784,13.02816 12.98784,13.02816 C12.98784,13.02816 12.984,9.23952 16.77648,9.23952 C20.76864,9.23952 20.20992,13.52016 20.20992,13.52016 Z" id="Shape"></path>
            <path d="M10.16352,9.5088 C10.16352,8.48304 9.46608,8.48304 9.46608,8.48304 L9.09648,8.48304 L6.59472,8.48304 L6.59472,10.68336 L9.288,10.68336 C9.75264,10.68336 10.16352,10.53408 10.16352,9.5088 Z" id="Path"></path>
        </g>
    </g>
</svg>