<?xml version="1.0" encoding="UTF-8"?>
<svg width="1461px" height="2211px" viewBox="0 0 1461 2211" version="1.1" xmlns="http://www.w3.org/2000/svg" xmlns:xlink="http://www.w3.org/1999/xlink">
    <!-- Generator: Sketch 59.1 (86144) - https://sketch.com -->
    <title>Group 3</title>
    <desc>Created with Sketch.</desc>
    <g id="Page-1" stroke="none" stroke-width="1" fill="none" fill-rule="evenodd">
        <g id="Group-3" transform="translate(-72.000000, 0.000000)">
            <rect id="Rectangle" fill="#000000" x="72" y="0" width="1459" height="2211"></rect>
            <ellipse id="Oval-Copy-2" fill="#FFFFFF" cx="1051" cy="1629.5" rx="46" ry="51.5"></ellipse>
            <ellipse id="Oval-Copy-3" fill="#FFFFFF" cx="1250" cy="1629.5" rx="46" ry="51.5"></ellipse>
            <ellipse id="Oval-Copy-4" fill="#FFFFFF" cx="259" cy="773.5" rx="46" ry="51.5"></ellipse>
            <ellipse id="Oval-Copy-5" fill="#FFFFFF" cx="258" cy="1200.5" rx="46" ry="51.5"></ellipse>
            <ellipse id="Oval" fill="#FFFFFF" cx="654.5" cy="354.5" rx="49.5" ry="61.5"></ellipse>
            <ellipse id="Oval-Copy-10" fill="#FFFFFF" cx="456.5" cy="354.5" rx="49.5" ry="61.5"></ellipse>
            <ellipse id="Oval-Copy-13" fill="#FFFFFF" cx="258.5" cy="354.5" rx="49.5" ry="61.5"></ellipse>
            <ellipse id="Oval-Copy-14" fill="#FFFFFF" cx="357.5" cy="141.5" rx="49.5" ry="61.5"></ellipse>
            <ellipse id="Oval-Copy-15" fill="#FFFFFF" cx="159.5" cy="141.5" rx="49.5" ry="61.5"></ellipse>
            <ellipse id="Oval-Copy-16" fill="#FFFFFF" cx="159.5" cy="141.5" rx="49.5" ry="61.5"></ellipse>
            <ellipse id="Oval-Copy-17" fill="#FFFFFF" cx="555.5" cy="141.5" rx="49.5" ry="61.5"></ellipse>
            <ellipse id="Oval-Copy-11" fill="#FFFFFF" cx="555.5" cy="569.5" rx="49.5" ry="61.5"></ellipse>
            <ellipse id="Oval-Copy-18" fill="#FFFFFF" cx="357.5" cy="569.5" rx="49.5" ry="61.5"></ellipse>
            <ellipse id="Oval-Copy-19" fill="#FFFFFF" cx="159.5" cy="569.5" rx="49.5" ry="61.5"></ellipse>
            <ellipse id="Oval-Copy-20" fill="#FFFFFF" cx="259.5" cy="782.5" rx="49.5" ry="61.5"></ellipse>
            <ellipse id="Oval-Copy-21" fill="#FFFFFF" cx="456.5" cy="782.5" rx="49.5" ry="61.5"></ellipse>
            <ellipse id="Oval-Copy-22" fill="#FFFFFF" cx="654.5" cy="782.5" rx="49.5" ry="61.5"></ellipse>
            <ellipse id="Oval-Copy-23" fill="#FFFFFF" cx="852.5" cy="782.5" rx="49.5" ry="61.5"></ellipse>
            <ellipse id="Oval-Copy-27" fill="#FFFFFF" cx="951.5" cy="567.5" rx="49.5" ry="61.5"></ellipse>
            <ellipse id="Oval-Copy-28" fill="#FFFFFF" cx="1149.5" cy="567.5" rx="49.5" ry="61.5"></ellipse>
            <ellipse id="Oval-Copy-29" fill="#FFFFFF" cx="1347.5" cy="567.5" rx="49.5" ry="61.5"></ellipse>
            <ellipse id="Oval-Copy-30" fill="#FFFFFF" cx="1447.5" cy="354.5" rx="49.5" ry="61.5"></ellipse>
            <ellipse id="Oval-Copy-31" fill="#FFFFFF" cx="1051.5" cy="354.5" rx="49.5" ry="61.5"></ellipse>
            <ellipse id="Oval-Copy-37" fill="#FFFFFF" cx="1248.5" cy="354.5" rx="49.5" ry="61.5"></ellipse>
            <ellipse id="Oval-Copy-38" fill="#FFFFFF" cx="1347.5" cy="991.5" rx="49.5" ry="61.5"></ellipse>
            <ellipse id="Oval-Copy-39" fill="#FFFFFF" cx="951.5" cy="991.5" rx="49.5" ry="61.5"></ellipse>
            <ellipse id="Oval-Copy-64" fill="#FFFFFF" cx="1149.5" cy="991.5" rx="49.5" ry="61.5"></ellipse>
            <ellipse id="Oval-Copy-40" fill="#FFFFFF" cx="753.5" cy="991.5" rx="49.5" ry="61.5"></ellipse>
            <ellipse id="Oval-Copy-41" fill="#FFFFFF" cx="555.5" cy="991.5" rx="49.5" ry="61.5"></ellipse>
            <ellipse id="Oval-Copy-42" fill="#FFFFFF" cx="159.5" cy="991.5" rx="49.5" ry="61.5"></ellipse>
            <ellipse id="Oval-Copy-63" fill="#FFFFFF" cx="357.5" cy="991.5" rx="49.5" ry="61.5"></ellipse>
            <ellipse id="Oval-Copy-43" fill="#FFFFFF" cx="258.5" cy="1203.5" rx="49.5" ry="61.5"></ellipse>
            <ellipse id="Oval-Copy-44" fill="#FFFFFF" cx="456.5" cy="1204.5" rx="49.5" ry="61.5"></ellipse>
            <ellipse id="Oval-Copy-45" fill="#FFFFFF" cx="654.5" cy="1204.5" rx="49.5" ry="61.5"></ellipse>
            <ellipse id="Oval-Copy-46" fill="#FFFFFF" cx="852.5" cy="1204.5" rx="49.5" ry="61.5"></ellipse>
            <ellipse id="Oval-Copy-47" fill="#FFFFFF" cx="1050.5" cy="1204.5" rx="49.5" ry="61.5"></ellipse>
            <ellipse id="Oval-Copy-48" fill="#FFFFFF" cx="1248.5" cy="1203.5" rx="49.5" ry="61.5"></ellipse>
            <ellipse id="Oval-Copy-65" fill="#FFFFFF" cx="1446.5" cy="1203.5" rx="49.5" ry="61.5"></ellipse>
            <ellipse id="Oval-Copy-49" fill="#FFFFFF" cx="1347.5" cy="1422.5" rx="49.5" ry="61.5"></ellipse>
            <ellipse id="Oval-Copy-50" fill="#FFFFFF" cx="1446.5" cy="1637.5" rx="49.5" ry="61.5"></ellipse>
            <ellipse id="Oval-Copy-51" fill="#FFFFFF" cx="1248.5" cy="1637.5" rx="49.5" ry="61.5"></ellipse>
            <ellipse id="Oval-Copy-52" fill="#FFFFFF" cx="1050.5" cy="1637.5" rx="49.5" ry="61.5"></ellipse>
            <ellipse id="Oval-Copy-54" fill="#FFFFFF" cx="951.5" cy="1421.5" rx="49.5" ry="61.5"></ellipse>
            <ellipse id="Oval-Copy-55" fill="#FFFFFF" cx="753.5" cy="1421.5" rx="49.5" ry="61.5"></ellipse>
            <ellipse id="Oval-Copy-56" fill="#FFFFFF" cx="555.5" cy="1422.5" rx="49.5" ry="61.5"></ellipse>
            <ellipse id="Oval-Copy-57" fill="#FFFFFF" cx="357.5" cy="1422.5" rx="49.5" ry="61.5"></ellipse>
            <ellipse id="Oval-Copy-58" fill="#FFFFFF" cx="159.5" cy="1422.5" rx="49.5" ry="61.5"></ellipse>
            <ellipse id="Oval-Copy-59" fill="#FFFFFF" cx="258.5" cy="1637.5" rx="49.5" ry="61.5"></ellipse>
            <ellipse id="Oval-Copy-60" fill="#FFFFFF" cx="456.5" cy="1637.5" rx="49.5" ry="61.5"></ellipse>
            <ellipse id="Oval-Copy-61" fill="#FFFFFF" cx="654.5" cy="1637.5" rx="49.5" ry="61.5"></ellipse>
            <ellipse id="Oval-Copy-62" fill="#FFFFFF" cx="852.5" cy="1637.5" rx="49.5" ry="61.5"></ellipse>
            <ellipse id="Oval-Copy-53" fill="#FFFFFF" cx="1149.5" cy="1422.5" rx="49.5" ry="61.5"></ellipse>
            <ellipse id="Oval-Copy-35" fill="#FFFFFF" cx="852.5" cy="353.5" rx="49.5" ry="61.5"></ellipse>
            <ellipse id="Oval-Copy-32" fill="#FFFFFF" cx="1347.5" cy="141.5" rx="49.5" ry="61.5"></ellipse>
            <ellipse id="Oval-Copy-33" fill="#FFFFFF" cx="951.5" cy="141.5" rx="49.5" ry="61.5"></ellipse>
            <ellipse id="Oval-Copy-36" fill="#FFFFFF" cx="1149.5" cy="141.5" rx="49.5" ry="61.5"></ellipse>
            <ellipse id="Oval-Copy-34" fill="#FFFFFF" cx="753.5" cy="141.5" rx="49.5" ry="61.5"></ellipse>
            <ellipse id="Oval-Copy-24" fill="#FFFFFF" cx="1050.5" cy="783.5" rx="49.5" ry="61.5"></ellipse>
            <ellipse id="Oval-Copy-25" fill="#FFFFFF" cx="1248.5" cy="783.5" rx="49.5" ry="61.5"></ellipse>
            <ellipse id="Oval-Copy-26" fill="#FFFFFF" cx="1446.5" cy="783.5" rx="49.5" ry="61.5"></ellipse>
            <ellipse id="Oval-Copy-12" fill="#FFFFFF" cx="753.5" cy="569.5" rx="49.5" ry="61.5"></ellipse>
            <path d="M1079.31448,1305.08486 C1082.84011,1305.88189 1092.73229,1305.07782 1108.99099,1302.67265 C1125.2497,1300.26748 1135.01309,1297.96273 1138.28115,1295.7584 C1147.05183,1352.64674 1122.76029,1402.93864 1065.40654,1446.6341 C1024.60661,1476.95359 1010.24169,1511.1999 1022.31176,1549.37303 C1015.84202,1548.60821 1004.73488,1549.4634 988.990343,1551.93859 C973.245809,1554.41377 964.303504,1556.31247 962.163429,1557.63469 C954.999037,1495.41449 975.565091,1448.0162 1023.86159,1415.4398 C1072.15809,1382.8634 1090.64239,1346.07842 1079.31448,1305.08486 Z" id="Rectangle" stroke="#FFFFFF" fill="#FFFFFF" transform="translate(1050.400671, 1426.696541) rotate(-56.000000) translate(-1050.400671, -1426.696541) "></path>
            <path d="M1376.12489,1518.18458 C1379.65052,1518.98161 1389.54269,1518.17754 1405.8014,1515.77237 C1422.06011,1513.3672 1431.82349,1511.06245 1435.09155,1508.85811 C1443.86223,1565.74646 1419.5707,1616.03836 1362.21695,1659.73382 C1321.41702,1690.05331 1307.05209,1724.29962 1319.12217,1762.47275 C1312.65242,1761.70793 1301.54528,1762.56312 1285.80075,1765.03831 C1270.05621,1767.51349 1261.11391,1769.41219 1258.97383,1770.7344 C1251.80944,1708.51421 1272.3755,1661.11591 1320.672,1628.53951 C1368.9685,1595.96311 1387.45279,1559.17813 1376.12489,1518.18458 Z" id="Rectangle-Copy-8" stroke="#FFFFFF" fill="#FFFFFF" transform="translate(1347.211077, 1639.796260) scale(-1, 1) rotate(-56.000000) translate(-1347.211077, -1639.796260) "></path>
            <path d="M1179.12489,1519.43077 C1182.65052,1520.22781 1192.54269,1519.42374 1208.8014,1517.01857 C1225.06011,1514.6134 1234.82349,1512.30865 1238.09155,1510.10431 C1246.86223,1566.99266 1222.5707,1617.28456 1165.21695,1660.98002 C1124.41702,1691.29951 1110.05209,1725.54582 1122.12217,1763.71895 C1115.65242,1762.95413 1104.54528,1763.80932 1088.80075,1766.2845 C1073.05621,1768.75969 1064.11391,1770.65839 1061.97383,1771.9806 C1054.80944,1709.76041 1075.3755,1662.36211 1123.672,1629.78571 C1171.9685,1597.20931 1190.45279,1560.42433 1179.12489,1519.43077 Z" id="Rectangle-Copy-9" stroke="#FFFFFF" fill="#FFFFFF" transform="translate(1150.211077, 1641.042457) scale(-1, 1) rotate(-56.000000) translate(-1150.211077, -1641.042457) "></path>
            <path d="M980.124888,1519.43077 C983.650521,1520.22781 993.542691,1519.42374 1009.8014,1517.01857 C1026.06011,1514.6134 1035.82349,1512.30865 1039.09155,1510.10431 C1047.86223,1566.99266 1023.5707,1617.28456 966.216949,1660.98002 C925.41702,1691.29951 911.052093,1725.54582 923.122168,1763.71895 C916.652423,1762.95413 905.545283,1763.80932 889.800749,1766.2845 C874.056215,1768.75969 865.11391,1770.65839 862.973835,1771.9806 C855.809443,1709.76041 876.375497,1662.36211 924.671997,1629.78571 C972.968496,1597.20931 991.452793,1560.42433 980.124888,1519.43077 Z" id="Rectangle-Copy-10" stroke="#FFFFFF" fill="#FFFFFF" transform="translate(951.211077, 1641.042457) scale(-1, 1) rotate(-56.000000) translate(-951.211077, -1641.042457) "></path>
            <path d="M782.124888,1518.18458 C785.650521,1518.98161 795.542691,1518.17754 811.8014,1515.77237 C828.060109,1513.3672 837.823493,1511.06245 841.091552,1508.85811 C849.862233,1565.74646 825.570699,1616.03836 768.216949,1659.73382 C727.41702,1690.05331 713.052093,1724.29962 725.122168,1762.47275 C718.652423,1761.70793 707.545283,1762.56312 691.800749,1765.03831 C676.056215,1767.51349 667.11391,1769.41219 664.973835,1770.7344 C657.809443,1708.51421 678.375497,1661.11591 726.671997,1628.53951 C774.968496,1595.96311 793.452793,1559.17813 782.124888,1518.18458 Z" id="Rectangle-Copy-11" stroke="#FFFFFF" fill="#FFFFFF" transform="translate(753.211077, 1639.796260) scale(-1, 1) rotate(-56.000000) translate(-753.211077, -1639.796260) "></path>
            <path d="M584.124888,1518.18458 C587.650521,1518.98161 597.542691,1518.17754 613.8014,1515.77237 C630.060109,1513.3672 639.823493,1511.06245 643.091552,1508.85811 C651.862233,1565.74646 627.570699,1616.03836 570.216949,1659.73382 C529.41702,1690.05331 515.052093,1724.29962 527.122168,1762.47275 C520.652423,1761.70793 509.545283,1762.56312 493.800749,1765.03831 C478.056215,1767.51349 469.11391,1769.41219 466.973835,1770.7344 C459.809443,1708.51421 480.375497,1661.11591 528.671997,1628.53951 C576.968496,1595.96311 595.452793,1559.17813 584.124888,1518.18458 Z" id="Rectangle-Copy-12" stroke="#FFFFFF" fill="#FFFFFF" transform="translate(555.211077, 1639.796260) scale(-1, 1) rotate(-56.000000) translate(-555.211077, -1639.796260) "></path>
            <path d="M386.124888,1519.43077 C389.650521,1520.22781 399.542691,1519.42374 415.8014,1517.01857 C432.060109,1514.6134 441.823493,1512.30865 445.091552,1510.10431 C453.862233,1566.99266 429.570699,1617.28456 372.216949,1660.98002 C331.41702,1691.29951 317.052093,1725.54582 329.122168,1763.71895 C322.652423,1762.95413 311.545283,1763.80932 295.800749,1766.2845 C280.056215,1768.75969 271.11391,1770.65839 268.973835,1771.9806 C261.809443,1709.76041 282.375497,1662.36211 330.671997,1629.78571 C378.968496,1597.20931 397.452793,1560.42433 386.124888,1519.43077 Z" id="Rectangle-Copy-13" stroke="#FFFFFF" fill="#FFFFFF" transform="translate(357.211077, 1641.042457) scale(-1, 1) rotate(-56.000000) translate(-357.211077, -1641.042457) "></path>
            <path d="M188.124888,1519.43077 C191.650521,1520.22781 201.542691,1519.42374 217.8014,1517.01857 C234.060109,1514.6134 243.823493,1512.30865 247.091552,1510.10431 C255.862233,1566.99266 231.570699,1617.28456 174.216949,1660.98002 C133.41702,1691.29951 119.052093,1725.54582 131.122168,1763.71895 C124.652423,1762.95413 113.545283,1763.80932 97.8007492,1766.2845 C82.056215,1768.75969 73.1139102,1770.65839 70.9738348,1771.9806 C63.8094432,1709.76041 84.3754971,1662.36211 132.671997,1629.78571 C180.968496,1597.20931 199.452793,1560.42433 188.124888,1519.43077 Z" id="Rectangle-Copy-14" stroke="#FFFFFF" fill="#FFFFFF" transform="translate(159.211077, 1641.042457) scale(-1, 1) rotate(-56.000000) translate(-159.211077, -1641.042457) "></path>
            <path d="M1376.17567,1078.31486 C1379.7013,1079.11189 1389.59347,1078.30783 1405.85218,1075.90265 C1422.11089,1073.49748 1431.87427,1071.19273 1435.14233,1068.9884 C1443.91301,1125.87674 1419.62148,1176.16865 1362.26773,1219.8641 C1321.4678,1250.18359 1307.10287,1284.4299 1319.17295,1322.60303 C1312.7032,1321.83822 1301.59606,1322.6934 1285.85153,1325.16859 C1270.107,1327.64378 1261.16469,1329.54248 1259.02462,1330.86469 C1251.86022,1268.64449 1272.42628,1221.2462 1320.72278,1188.6698 C1369.01928,1156.0934 1387.50357,1119.30842 1376.17567,1078.31486 Z" id="Rectangle-Copy-21" stroke="#FFFFFF" fill="#FFFFFF" transform="translate(1347.261858, 1199.926542) scale(-1, 1) rotate(-56.000000) translate(-1347.261858, -1199.926542) "></path>
            <path d="M1179.17567,1079.56106 C1182.7013,1080.35809 1192.59347,1079.55402 1208.85218,1077.14885 C1225.11089,1074.74368 1234.87427,1072.43893 1238.14233,1070.23459 C1246.91301,1127.12294 1222.62148,1177.41484 1165.26773,1221.1103 C1124.4678,1251.42979 1110.10287,1285.6761 1122.17295,1323.84923 C1115.7032,1323.08441 1104.59606,1323.9396 1088.85153,1326.41479 C1073.107,1328.88997 1064.16469,1330.78867 1062.02462,1332.11088 C1054.86022,1269.89069 1075.42628,1222.49239 1123.72278,1189.91599 C1172.01928,1157.33959 1190.50357,1120.55461 1179.17567,1079.56106 Z" id="Rectangle-Copy-20" stroke="#FFFFFF" fill="#FFFFFF" transform="translate(1150.261858, 1201.172739) scale(-1, 1) rotate(-56.000000) translate(-1150.261858, -1201.172739) "></path>
            <path d="M980.175669,1079.56106 C983.701302,1080.35809 993.593473,1079.55402 1009.85218,1077.14885 C1026.11089,1074.74368 1035.87427,1072.43893 1039.14233,1070.23459 C1047.91301,1127.12294 1023.62148,1177.41484 966.267731,1221.1103 C925.467801,1251.42979 911.102875,1285.6761 923.17295,1323.84923 C916.703205,1323.08441 905.596065,1323.9396 889.851531,1326.41479 C874.106996,1328.88997 865.164692,1330.78867 863.024616,1332.11088 C855.860225,1269.89069 876.426278,1222.49239 924.722778,1189.91599 C973.019277,1157.33959 991.503574,1120.55461 980.175669,1079.56106 Z" id="Rectangle-Copy-19" stroke="#FFFFFF" fill="#FFFFFF" transform="translate(951.261858, 1201.172739) scale(-1, 1) rotate(-56.000000) translate(-951.261858, -1201.172739) "></path>
            <path d="M782.175669,1078.31486 C785.701302,1079.11189 795.593473,1078.30783 811.852181,1075.90265 C828.11089,1073.49748 837.874274,1071.19273 841.142333,1068.9884 C849.913015,1125.87674 825.62148,1176.16865 768.267731,1219.8641 C727.467801,1250.18359 713.102875,1284.4299 725.17295,1322.60303 C718.703205,1321.83822 707.596065,1322.6934 691.851531,1325.16859 C676.106996,1327.64378 667.164692,1329.54248 665.024616,1330.86469 C657.860225,1268.64449 678.426278,1221.2462 726.722778,1188.6698 C775.019277,1156.0934 793.503574,1119.30842 782.175669,1078.31486 Z" id="Rectangle-Copy-18" stroke="#FFFFFF" fill="#FFFFFF" transform="translate(753.261858, 1199.926542) scale(-1, 1) rotate(-56.000000) translate(-753.261858, -1199.926542) "></path>
            <path d="M584.175669,1078.31486 C587.701302,1079.11189 597.593473,1078.30783 613.852181,1075.90265 C630.11089,1073.49748 639.874274,1071.19273 643.142333,1068.9884 C651.913015,1125.87674 627.62148,1176.16865 570.267731,1219.8641 C529.467801,1250.18359 515.102875,1284.4299 527.17295,1322.60303 C520.703205,1321.83822 509.596065,1322.6934 493.851531,1325.16859 C478.106996,1327.64378 469.164692,1329.54248 467.024616,1330.86469 C459.860225,1268.64449 480.426278,1221.2462 528.722778,1188.6698 C577.019277,1156.0934 595.503574,1119.30842 584.175669,1078.31486 Z" id="Rectangle-Copy-17" stroke="#FFFFFF" fill="#FFFFFF" transform="translate(555.261858, 1199.926542) scale(-1, 1) rotate(-56.000000) translate(-555.261858, -1199.926542) "></path>
            <path d="M386.175669,1079.56106 C389.701302,1080.35809 399.593473,1079.55402 415.852181,1077.14885 C432.11089,1074.74368 441.874274,1072.43893 445.142333,1070.23459 C453.913015,1127.12294 429.62148,1177.41484 372.267731,1221.1103 C331.467801,1251.42979 317.102875,1285.6761 329.17295,1323.84923 C322.703205,1323.08441 311.596065,1323.9396 295.851531,1326.41479 C280.106996,1328.88997 271.164692,1330.78867 269.024616,1332.11088 C261.860225,1269.89069 282.426278,1222.49239 330.722778,1189.91599 C379.019277,1157.33959 397.503574,1120.55461 386.175669,1079.56106 Z" id="Rectangle-Copy-16" stroke="#FFFFFF" fill="#FFFFFF" transform="translate(357.261858, 1201.172739) scale(-1, 1) rotate(-56.000000) translate(-357.261858, -1201.172739) "></path>
            <path d="M188.175669,1079.56106 C191.701302,1080.35809 201.593473,1079.55402 217.852181,1077.14885 C234.11089,1074.74368 243.874274,1072.43893 247.142333,1070.23459 C255.913015,1127.12294 231.62148,1177.41484 174.267731,1221.1103 C133.467801,1251.42979 119.102875,1285.6761 131.17295,1323.84923 C124.703205,1323.08441 113.596065,1323.9396 97.8515306,1326.41479 C82.1069963,1328.88997 73.1646915,1330.78867 71.0246161,1332.11088 C63.8602245,1269.89069 84.4262784,1222.49239 132.722778,1189.91599 C181.019277,1157.33959 199.503574,1120.55461 188.175669,1079.56106 Z" id="Rectangle-Copy-15" stroke="#FFFFFF" fill="#FFFFFF" transform="translate(159.261858, 1201.172739) scale(-1, 1) rotate(-56.000000) translate(-159.261858, -1201.172739) "></path>
            <path d="M1376.17567,658.346408 C1379.7013,659.143443 1389.59347,658.339375 1405.85218,655.934204 C1422.11089,653.529033 1431.87427,651.22428 1435.14233,649.019946 C1443.91301,705.908294 1419.62148,756.200195 1362.26773,799.89565 C1321.4678,830.215142 1307.10287,864.461453 1319.17295,902.634582 C1312.7032,901.869765 1301.59606,902.72495 1285.85153,905.200137 C1270.107,907.675325 1261.16469,909.574025 1259.02462,910.896237 C1251.86022,848.676043 1272.42628,801.277746 1320.72278,768.701346 C1369.01928,736.124946 1387.50357,699.339967 1376.17567,658.346408 Z" id="Rectangle-Copy-28" stroke="#FFFFFF" fill="#FFFFFF" transform="translate(1347.261858, 779.958092) scale(-1, 1) rotate(-56.000000) translate(-1347.261858, -779.958092) "></path>
            <path d="M1179.17567,659.592605 C1182.7013,660.38964 1192.59347,659.585572 1208.85218,657.180401 C1225.11089,654.77523 1234.87427,652.470477 1238.14233,650.266144 C1246.91301,707.154491 1222.62148,757.446392 1165.26773,801.141847 C1124.4678,831.461339 1110.10287,865.70765 1122.17295,903.880779 C1115.7032,903.115962 1104.59606,903.971147 1088.85153,906.446335 C1073.107,908.921522 1064.16469,910.820222 1062.02462,912.142434 C1054.86022,849.92224 1075.42628,802.523944 1123.72278,769.947543 C1172.01928,737.371143 1190.50357,700.586164 1179.17567,659.592605 Z" id="Rectangle-Copy-27" stroke="#FFFFFF" fill="#FFFFFF" transform="translate(1150.261858, 781.204289) scale(-1, 1) rotate(-56.000000) translate(-1150.261858, -781.204289) "></path>
            <path d="M980.175669,659.592605 C983.701302,660.38964 993.593473,659.585572 1009.85218,657.180401 C1026.11089,654.77523 1035.87427,652.470477 1039.14233,650.266144 C1047.91301,707.154491 1023.62148,757.446392 966.267731,801.141847 C925.467801,831.461339 911.102875,865.70765 923.17295,903.880779 C916.703205,903.115962 905.596065,903.971147 889.851531,906.446335 C874.106996,908.921522 865.164692,910.820222 863.024616,912.142434 C855.860225,849.92224 876.426278,802.523944 924.722778,769.947543 C973.019277,737.371143 991.503574,700.586164 980.175669,659.592605 Z" id="Rectangle-Copy-26" stroke="#FFFFFF" fill="#FFFFFF" transform="translate(951.261858, 781.204289) scale(-1, 1) rotate(-56.000000) translate(-951.261858, -781.204289) "></path>
            <path d="M782.175669,658.346408 C785.701302,659.143443 795.593473,658.339375 811.852181,655.934204 C828.11089,653.529033 837.874274,651.22428 841.142333,649.019946 C849.913015,705.908294 825.62148,756.200195 768.267731,799.89565 C727.467801,830.215142 713.102875,864.461453 725.17295,902.634582 C718.703205,901.869765 707.596065,902.72495 691.851531,905.200137 C676.106996,907.675325 667.164692,909.574025 665.024616,910.896237 C657.860225,848.676043 678.426278,801.277746 726.722778,768.701346 C775.019277,736.124946 793.503574,699.339967 782.175669,658.346408 Z" id="Rectangle-Copy-25" stroke="#FFFFFF" fill="#FFFFFF" transform="translate(753.261858, 779.958092) scale(-1, 1) rotate(-56.000000) translate(-753.261858, -779.958092) "></path>
            <path d="M584.175669,658.346408 C587.701302,659.143443 597.593473,658.339375 613.852181,655.934204 C630.11089,653.529033 639.874274,651.22428 643.142333,649.019946 C651.913015,705.908294 627.62148,756.200195 570.267731,799.89565 C529.467801,830.215142 515.102875,864.461453 527.17295,902.634582 C520.703205,901.869765 509.596065,902.72495 493.851531,905.200137 C478.106996,907.675325 469.164692,909.574025 467.024616,910.896237 C459.860225,848.676043 480.426278,801.277746 528.722778,768.701346 C577.019277,736.124946 595.503574,699.339967 584.175669,658.346408 Z" id="Rectangle-Copy-24" stroke="#FFFFFF" fill="#FFFFFF" transform="translate(555.261858, 779.958092) scale(-1, 1) rotate(-56.000000) translate(-555.261858, -779.958092) "></path>
            <path d="M386.175669,659.592605 C389.701302,660.38964 399.593473,659.585572 415.852181,657.180401 C432.11089,654.77523 441.874274,652.470477 445.142333,650.266144 C453.913015,707.154491 429.62148,757.446392 372.267731,801.141847 C331.467801,831.461339 317.102875,865.70765 329.17295,903.880779 C322.703205,903.115962 311.596065,903.971147 295.851531,906.446335 C280.106996,908.921522 271.164692,910.820222 269.024616,912.142434 C261.860225,849.92224 282.426278,802.523944 330.722778,769.947543 C379.019277,737.371143 397.503574,700.586164 386.175669,659.592605 Z" id="Rectangle-Copy-23" stroke="#FFFFFF" fill="#FFFFFF" transform="translate(357.261858, 781.204289) scale(-1, 1) rotate(-56.000000) translate(-357.261858, -781.204289) "></path>
            <path d="M188.175669,659.592605 C191.701302,660.38964 201.593473,659.585572 217.852181,657.180401 C234.11089,654.77523 243.874274,652.470477 247.142333,650.266144 C255.913015,707.154491 231.62148,757.446392 174.267731,801.141847 C133.467801,831.461339 119.102875,865.70765 131.17295,903.880779 C124.703205,903.115962 113.596065,903.971147 97.8515306,906.446335 C82.1069963,908.921522 73.1646915,910.820222 71.0246161,912.142434 C63.8602245,849.92224 84.4262784,802.523944 132.722778,769.947543 C181.019277,737.371143 199.503574,700.586164 188.175669,659.592605 Z" id="Rectangle-Copy-22" stroke="#FFFFFF" fill="#FFFFFF" transform="translate(159.261858, 781.204289) scale(-1, 1) rotate(-56.000000) translate(-159.261858, -781.204289) "></path>
            <path d="M1376.17567,234.639365 C1379.7013,235.436401 1389.59347,234.632333 1405.85218,232.227162 C1422.11089,229.821991 1431.87427,227.517238 1435.14233,225.312904 C1443.91301,282.201252 1419.62148,332.493153 1362.26773,376.188608 C1321.4678,406.5081 1307.10287,440.754411 1319.17295,478.92754 C1312.7032,478.162723 1301.59606,479.017908 1285.85153,481.493095 C1270.107,483.968283 1261.16469,485.866982 1259.02462,487.189194 C1251.86022,424.969001 1272.42628,377.570704 1320.72278,344.994304 C1369.01928,312.417904 1387.50357,275.632924 1376.17567,234.639365 Z" id="Rectangle-Copy-35" stroke="#FFFFFF" fill="#FFFFFF" transform="translate(1347.261858, 356.251049) scale(-1, 1) rotate(-56.000000) translate(-1347.261858, -356.251049) "></path>
            <path d="M1179.17567,235.885563 C1182.7013,236.682598 1192.59347,235.87853 1208.85218,233.473359 C1225.11089,231.068188 1234.87427,228.763435 1238.14233,226.559101 C1246.91301,283.447449 1222.62148,333.73935 1165.26773,377.434805 C1124.4678,407.754297 1110.10287,442.000608 1122.17295,480.173737 C1115.7032,479.40892 1104.59606,480.264105 1088.85153,482.739292 C1073.107,485.21448 1064.16469,487.11318 1062.02462,488.435392 C1054.86022,426.215198 1075.42628,378.816901 1123.72278,346.240501 C1172.01928,313.664101 1190.50357,276.879121 1179.17567,235.885563 Z" id="Rectangle-Copy-34" stroke="#FFFFFF" fill="#FFFFFF" transform="translate(1150.261858, 357.497246) scale(-1, 1) rotate(-56.000000) translate(-1150.261858, -357.497246) "></path>
            <path d="M980.175669,235.885563 C983.701302,236.682598 993.593473,235.87853 1009.85218,233.473359 C1026.11089,231.068188 1035.87427,228.763435 1039.14233,226.559101 C1047.91301,283.447449 1023.62148,333.73935 966.267731,377.434805 C925.467801,407.754297 911.102875,442.000608 923.17295,480.173737 C916.703205,479.40892 905.596065,480.264105 889.851531,482.739292 C874.106996,485.21448 865.164692,487.11318 863.024616,488.435392 C855.860225,426.215198 876.426278,378.816901 924.722778,346.240501 C973.019277,313.664101 991.503574,276.879121 980.175669,235.885563 Z" id="Rectangle-Copy-33" stroke="#FFFFFF" fill="#FFFFFF" transform="translate(951.261858, 357.497246) scale(-1, 1) rotate(-56.000000) translate(-951.261858, -357.497246) "></path>
            <path d="M782.175669,234.639365 C785.701302,235.436401 795.593473,234.632333 811.852181,232.227162 C828.11089,229.821991 837.874274,227.517238 841.142333,225.312904 C849.913015,282.201252 825.62148,332.493153 768.267731,376.188608 C727.467801,406.5081 713.102875,440.754411 725.17295,478.92754 C718.703205,478.162723 707.596065,479.017908 691.851531,481.493095 C676.106996,483.968283 667.164692,485.866982 665.024616,487.189194 C657.860225,424.969001 678.426278,377.570704 726.722778,344.994304 C775.019277,312.417904 793.503574,275.632924 782.175669,234.639365 Z" id="Rectangle-Copy-32" stroke="#FFFFFF" fill="#FFFFFF" transform="translate(753.261858, 356.251049) scale(-1, 1) rotate(-56.000000) translate(-753.261858, -356.251049) "></path>
            <path d="M584.175669,234.639365 C587.701302,235.436401 597.593473,234.632333 613.852181,232.227162 C630.11089,229.821991 639.874274,227.517238 643.142333,225.312904 C651.913015,282.201252 627.62148,332.493153 570.267731,376.188608 C529.467801,406.5081 515.102875,440.754411 527.17295,478.92754 C520.703205,478.162723 509.596065,479.017908 493.851531,481.493095 C478.106996,483.968283 469.164692,485.866982 467.024616,487.189194 C459.860225,424.969001 480.426278,377.570704 528.722778,344.994304 C577.019277,312.417904 595.503574,275.632924 584.175669,234.639365 Z" id="Rectangle-Copy-31" stroke="#FFFFFF" fill="#FFFFFF" transform="translate(555.261858, 356.251049) scale(-1, 1) rotate(-56.000000) translate(-555.261858, -356.251049) "></path>
            <path d="M386.175669,235.885563 C389.701302,236.682598 399.593473,235.87853 415.852181,233.473359 C432.11089,231.068188 441.874274,228.763435 445.142333,226.559101 C453.913015,283.447449 429.62148,333.73935 372.267731,377.434805 C331.467801,407.754297 317.102875,442.000608 329.17295,480.173737 C322.703205,479.40892 311.596065,480.264105 295.851531,482.739292 C280.106996,485.21448 271.164692,487.11318 269.024616,488.435392 C261.860225,426.215198 282.426278,378.816901 330.722778,346.240501 C379.019277,313.664101 397.503574,276.879121 386.175669,235.885563 Z" id="Rectangle-Copy-30" stroke="#FFFFFF" fill="#FFFFFF" transform="translate(357.261858, 357.497246) scale(-1, 1) rotate(-56.000000) translate(-357.261858, -357.497246) "></path>
            <path d="M188.175669,235.885563 C191.701302,236.682598 201.593473,235.87853 217.852181,233.473359 C234.11089,231.068188 243.874274,228.763435 247.142333,226.559101 C255.913015,283.447449 231.62148,333.73935 174.267731,377.434805 C133.467801,407.754297 119.102875,442.000608 131.17295,480.173737 C124.703205,479.40892 113.596065,480.264105 97.8515306,482.739292 C82.1069963,485.21448 73.1646915,487.11318 71.0246161,488.435392 C63.8602245,426.215198 84.4262784,378.816901 132.722778,346.240501 C181.019277,313.664101 199.503574,276.879121 188.175669,235.885563 Z" id="Rectangle-Copy-29" stroke="#FFFFFF" fill="#FFFFFF" transform="translate(159.261858, 357.497246) scale(-1, 1) rotate(-56.000000) translate(-159.261858, -357.497246) "></path>
            <path d="M880.314482,1303.83866 C883.840115,1304.6357 893.732286,1303.83163 909.990994,1301.42646 C926.249703,1299.02129 936.013087,1296.71653 939.281146,1294.5122 C948.051828,1351.40055 923.760293,1401.69245 866.406543,1445.3879 C825.606614,1475.70739 811.241687,1509.95371 823.311763,1548.12683 C816.842017,1547.36202 805.734878,1548.2172 789.990343,1550.69239 C774.245809,1553.16758 765.303504,1555.06628 763.163429,1556.38849 C755.999037,1494.1683 776.565091,1446.77 824.861591,1414.1936 C873.15809,1381.6172 891.642387,1344.83222 880.314482,1303.83866 Z" id="Rectangle-Copy-4" stroke="#FFFFFF" fill="#FFFFFF" transform="translate(851.400671, 1425.450344) rotate(-56.000000) translate(-851.400671, -1425.450344) "></path>
            <path d="M683.314482,1303.83866 C686.840115,1304.6357 696.732286,1303.83163 712.990994,1301.42646 C729.249703,1299.02129 739.013087,1296.71653 742.281146,1294.5122 C751.051828,1351.40055 726.760293,1401.69245 669.406543,1445.3879 C628.606614,1475.70739 614.241687,1509.95371 626.311763,1548.12683 C619.842017,1547.36202 608.734878,1548.2172 592.990343,1550.69239 C577.245809,1553.16758 568.303504,1555.06628 566.163429,1556.38849 C558.999037,1494.1683 579.565091,1446.77 627.861591,1414.1936 C676.15809,1381.6172 694.642387,1344.83222 683.314482,1303.83866 Z" id="Rectangle-Copy-5" stroke="#FFFFFF" fill="#FFFFFF" transform="translate(654.400671, 1425.450344) rotate(-56.000000) translate(-654.400671, -1425.450344) "></path>
            <path d="M287.314482,1305.08486 C290.840115,1305.88189 300.732286,1305.07782 316.990994,1302.67265 C333.249703,1300.26748 343.013087,1297.96273 346.281146,1295.7584 C355.051828,1352.64674 330.760293,1402.93864 273.406543,1446.6341 C232.606614,1476.95359 218.241687,1511.1999 230.311763,1549.37303 C223.842017,1548.60821 212.734878,1549.4634 196.990343,1551.93859 C181.245809,1554.41377 172.303504,1556.31247 170.163429,1557.63469 C162.999037,1495.41449 183.565091,1448.0162 231.861591,1415.4398 C280.15809,1382.8634 298.642387,1346.07842 287.314482,1305.08486 Z" id="Rectangle-Copy-6" stroke="#FFFFFF" fill="#FFFFFF" transform="translate(258.400671, 1426.696541) rotate(-56.000000) translate(-258.400671, -1426.696541) "></path>
            <path d="M486.314482,1303.83866 C489.840115,1304.6357 499.732286,1303.83163 515.990994,1301.42646 C532.249703,1299.02129 542.013087,1296.71653 545.281146,1294.5122 C554.051828,1351.40055 529.760293,1401.69245 472.406543,1445.3879 C431.606614,1475.70739 417.241687,1509.95371 429.311763,1548.12683 C422.842017,1547.36202 411.734878,1548.2172 395.990343,1550.69239 C380.245809,1553.16758 371.303504,1555.06628 369.163429,1556.38849 C361.999037,1494.1683 382.565091,1446.77 430.861591,1414.1936 C479.15809,1381.6172 497.642387,1344.83222 486.314482,1303.83866 Z" id="Rectangle-Copy-7" stroke="#FFFFFF" fill="#FFFFFF" transform="translate(457.400671, 1425.450344) rotate(-56.000000) translate(-457.400671, -1425.450344) "></path>
            <path d="M1277.31448,1305.08486 C1280.84011,1305.88189 1290.73229,1305.07782 1306.99099,1302.67265 C1323.2497,1300.26748 1333.01309,1297.96273 1336.28115,1295.7584 C1345.05183,1352.64674 1320.76029,1402.93864 1263.40654,1446.6341 C1222.60661,1476.95359 1208.24169,1511.1999 1220.31176,1549.37303 C1213.84202,1548.60821 1202.73488,1549.4634 1186.99034,1551.93859 C1171.24581,1554.41377 1162.3035,1556.31247 1160.16343,1557.63469 C1152.99904,1495.41449 1173.56509,1448.0162 1221.86159,1415.4398 C1270.15809,1382.8634 1288.64239,1346.07842 1277.31448,1305.08486 Z" id="Rectangle-Copy-2" stroke="#FFFFFF" fill="#FFFFFF" transform="translate(1248.400671, 1426.696541) rotate(-56.000000) translate(-1248.400671, -1426.696541) "></path>
            <path d="M1475.31448,1303.83866 C1478.84011,1304.6357 1488.73229,1303.83163 1504.99099,1301.42646 C1521.2497,1299.02129 1531.01309,1296.71653 1534.28115,1294.5122 C1543.05183,1351.40055 1518.76029,1401.69245 1461.40654,1445.3879 C1420.60661,1475.70739 1406.24169,1509.95371 1418.31176,1548.12683 C1411.84202,1547.36202 1400.73488,1548.2172 1384.99034,1550.69239 C1369.24581,1553.16758 1360.3035,1555.06628 1358.16343,1556.38849 C1350.99904,1494.1683 1371.56509,1446.77 1419.86159,1414.1936 C1468.15809,1381.6172 1486.64239,1344.83222 1475.31448,1303.83866 Z" id="Rectangle-Copy-3" stroke="#FFFFFF" fill="#FFFFFF" transform="translate(1446.400671, 1425.450344) rotate(-56.000000) translate(-1446.400671, -1425.450344) "></path>
            <ellipse id="Oval-Copy-79" fill="#FFFFFF" cx="1347.5" cy="1841.5" rx="49.5" ry="61.5"></ellipse>
            <ellipse id="Oval-Copy-78" fill="#FFFFFF" cx="1446.5" cy="2055.5" rx="49.5" ry="61.5"></ellipse>
            <ellipse id="Oval-Copy-77" fill="#FFFFFF" cx="1248.5" cy="2055.5" rx="49.5" ry="61.5"></ellipse>
            <ellipse id="Oval-Copy-76" fill="#FFFFFF" cx="1050.5" cy="2055.5" rx="49.5" ry="61.5"></ellipse>
            <ellipse id="Oval-Copy-75" fill="#FFFFFF" cx="951.5" cy="1840.5" rx="49.5" ry="61.5"></ellipse>
            <ellipse id="Oval-Copy-74" fill="#FFFFFF" cx="753.5" cy="1840.5" rx="49.5" ry="61.5"></ellipse>
            <ellipse id="Oval-Copy-73" fill="#FFFFFF" cx="555.5" cy="1841.5" rx="49.5" ry="61.5"></ellipse>
            <ellipse id="Oval-Copy-72" fill="#FFFFFF" cx="357.5" cy="1841.5" rx="49.5" ry="61.5"></ellipse>
            <ellipse id="Oval-Copy-71" fill="#FFFFFF" cx="159.5" cy="1841.5" rx="49.5" ry="61.5"></ellipse>
            <ellipse id="Oval-Copy-70" fill="#FFFFFF" cx="258.5" cy="2055.5" rx="49.5" ry="61.5"></ellipse>
            <ellipse id="Oval-Copy-69" fill="#FFFFFF" cx="456.5" cy="2055.5" rx="49.5" ry="61.5"></ellipse>
            <ellipse id="Oval-Copy-68" fill="#FFFFFF" cx="654.5" cy="2055.5" rx="49.5" ry="61.5"></ellipse>
            <ellipse id="Oval-Copy-67" fill="#FFFFFF" cx="852.5" cy="2055.5" rx="49.5" ry="61.5"></ellipse>
            <ellipse id="Oval-Copy-66" fill="#FFFFFF" cx="1149.5" cy="1841.5" rx="49.5" ry="61.5"></ellipse>
            <path d="M1079.36526,1723.88289 C1082.8909,1724.67992 1092.78307,1723.87585 1109.04178,1721.47068 C1125.30048,1719.06551 1135.06387,1716.76076 1138.33193,1714.55643 C1147.10261,1771.44477 1122.81107,1821.73667 1065.45732,1865.43213 C1024.6574,1895.75162 1010.29247,1929.99793 1022.36254,1968.17106 C1015.8928,1967.40624 1004.78566,1968.26143 989.041125,1970.73662 C973.296591,1973.2118 964.354286,1975.1105 962.21421,1976.43272 C955.049819,1914.21252 975.615873,1866.81423 1023.91237,1834.23783 C1072.20887,1801.66143 1090.69317,1764.87645 1079.36526,1723.88289 Z" id="Rectangle-Copy-70" stroke="#FFFFFF" fill="#FFFFFF" transform="translate(1050.451453, 1845.494571) rotate(-56.000000) translate(-1050.451453, -1845.494571) "></path>
            <path d="M1376.17567,1936.98261 C1379.7013,1937.77964 1389.59347,1936.97557 1405.85218,1934.5704 C1422.11089,1932.16523 1431.87427,1929.86048 1435.14233,1927.65614 C1443.91301,1984.54449 1419.62148,2034.83639 1362.26773,2078.53185 C1321.4678,2108.85134 1307.10287,2143.09765 1319.17295,2181.27078 C1312.7032,2180.50596 1301.59606,2181.36115 1285.85153,2183.83634 C1270.107,2186.31152 1261.16469,2188.21022 1259.02462,2189.53243 C1251.86022,2127.31224 1272.42628,2079.91394 1320.72278,2047.33754 C1369.01928,2014.76114 1387.50357,1977.97616 1376.17567,1936.98261 Z" id="Rectangle-Copy-69" stroke="#FFFFFF" fill="#FFFFFF" transform="translate(1347.261858, 2058.594290) scale(-1, 1) rotate(-56.000000) translate(-1347.261858, -2058.594290) "></path>
            <path d="M1179.17567,1938.2288 C1182.7013,1939.02584 1192.59347,1938.22177 1208.85218,1935.8166 C1225.11089,1933.41143 1234.87427,1931.10668 1238.14233,1928.90234 C1246.91301,1985.79069 1222.62148,2036.08259 1165.26773,2079.77805 C1124.4678,2110.09754 1110.10287,2144.34385 1122.17295,2182.51698 C1115.7032,2181.75216 1104.59606,2182.60735 1088.85153,2185.08253 C1073.107,2187.55772 1064.16469,2189.45642 1062.02462,2190.77863 C1054.86022,2128.55844 1075.42628,2081.16014 1123.72278,2048.58374 C1172.01928,2016.00734 1190.50357,1979.22236 1179.17567,1938.2288 Z" id="Rectangle-Copy-68" stroke="#FFFFFF" fill="#FFFFFF" transform="translate(1150.261858, 2059.840487) scale(-1, 1) rotate(-56.000000) translate(-1150.261858, -2059.840487) "></path>
            <path d="M980.175669,1938.2288 C983.701302,1939.02584 993.593473,1938.22177 1009.85218,1935.8166 C1026.11089,1933.41143 1035.87427,1931.10668 1039.14233,1928.90234 C1047.91301,1985.79069 1023.62148,2036.08259 966.267731,2079.77805 C925.467801,2110.09754 911.102875,2144.34385 923.17295,2182.51698 C916.703205,2181.75216 905.596065,2182.60735 889.851531,2185.08253 C874.106996,2187.55772 865.164692,2189.45642 863.024616,2190.77863 C855.860225,2128.55844 876.426278,2081.16014 924.722778,2048.58374 C973.019277,2016.00734 991.503574,1979.22236 980.175669,1938.2288 Z" id="Rectangle-Copy-67" stroke="#FFFFFF" fill="#FFFFFF" transform="translate(951.261858, 2059.840487) scale(-1, 1) rotate(-56.000000) translate(-951.261858, -2059.840487) "></path>
            <path d="M782.175669,1936.98261 C785.701302,1937.77964 795.593473,1936.97557 811.852181,1934.5704 C828.11089,1932.16523 837.874274,1929.86048 841.142333,1927.65614 C849.913015,1984.54449 825.62148,2034.83639 768.267731,2078.53185 C727.467801,2108.85134 713.102875,2143.09765 725.17295,2181.27078 C718.703205,2180.50596 707.596065,2181.36115 691.851531,2183.83634 C676.106996,2186.31152 667.164692,2188.21022 665.024616,2189.53243 C657.860225,2127.31224 678.426278,2079.91394 726.722778,2047.33754 C775.019277,2014.76114 793.503574,1977.97616 782.175669,1936.98261 Z" id="Rectangle-Copy-66" stroke="#FFFFFF" fill="#FFFFFF" transform="translate(753.261858, 2058.594290) scale(-1, 1) rotate(-56.000000) translate(-753.261858, -2058.594290) "></path>
            <path d="M584.175669,1936.98261 C587.701302,1937.77964 597.593473,1936.97557 613.852181,1934.5704 C630.11089,1932.16523 639.874274,1929.86048 643.142333,1927.65614 C651.913015,1984.54449 627.62148,2034.83639 570.267731,2078.53185 C529.467801,2108.85134 515.102875,2143.09765 527.17295,2181.27078 C520.703205,2180.50596 509.596065,2181.36115 493.851531,2183.83634 C478.106996,2186.31152 469.164692,2188.21022 467.024616,2189.53243 C459.860225,2127.31224 480.426278,2079.91394 528.722778,2047.33754 C577.019277,2014.76114 595.503574,1977.97616 584.175669,1936.98261 Z" id="Rectangle-Copy-65" stroke="#FFFFFF" fill="#FFFFFF" transform="translate(555.261858, 2058.594290) scale(-1, 1) rotate(-56.000000) translate(-555.261858, -2058.594290) "></path>
            <path d="M386.175669,1938.2288 C389.701302,1939.02584 399.593473,1938.22177 415.852181,1935.8166 C432.11089,1933.41143 441.874274,1931.10668 445.142333,1928.90234 C453.913015,1985.79069 429.62148,2036.08259 372.267731,2079.77805 C331.467801,2110.09754 317.102875,2144.34385 329.17295,2182.51698 C322.703205,2181.75216 311.596065,2182.60735 295.851531,2185.08253 C280.106996,2187.55772 271.164692,2189.45642 269.024616,2190.77863 C261.860225,2128.55844 282.426278,2081.16014 330.722778,2048.58374 C379.019277,2016.00734 397.503574,1979.22236 386.175669,1938.2288 Z" id="Rectangle-Copy-64" stroke="#FFFFFF" fill="#FFFFFF" transform="translate(357.261858, 2059.840487) scale(-1, 1) rotate(-56.000000) translate(-357.261858, -2059.840487) "></path>
            <path d="M188.175669,1938.2288 C191.701302,1939.02584 201.593473,1938.22177 217.852181,1935.8166 C234.11089,1933.41143 243.874274,1931.10668 247.142333,1928.90234 C255.913015,1985.79069 231.62148,2036.08259 174.267731,2079.77805 C133.467801,2110.09754 119.102875,2144.34385 131.17295,2182.51698 C124.703205,2181.75216 113.596065,2182.60735 97.8515306,2185.08253 C82.1069963,2187.55772 73.1646915,2189.45642 71.0246161,2190.77863 C63.8602245,2128.55844 84.4262784,2081.16014 132.722778,2048.58374 C181.019277,2016.00734 199.503574,1979.22236 188.175669,1938.2288 Z" id="Rectangle-Copy-63" stroke="#FFFFFF" fill="#FFFFFF" transform="translate(159.261858, 2059.840487) scale(-1, 1) rotate(-56.000000) translate(-159.261858, -2059.840487) "></path>
            <path d="M880.365264,1722.63669 C883.890896,1723.43373 893.783067,1722.62966 910.041776,1720.22449 C926.300484,1717.81932 936.063868,1715.51456 939.331928,1713.31023 C948.102609,1770.19858 923.811075,1820.49048 866.457325,1864.18593 C825.657396,1894.50542 811.292469,1928.75174 823.362544,1966.92486 C816.892799,1966.16005 805.785659,1967.01523 790.041125,1969.49042 C774.296591,1971.96561 765.354286,1973.86431 763.21421,1975.18652 C756.049819,1912.96633 776.615873,1865.56803 824.912372,1832.99163 C873.208872,1800.41523 891.693169,1763.63025 880.365264,1722.63669 Z" id="Rectangle-Copy-62" stroke="#FFFFFF" fill="#FFFFFF" transform="translate(851.451453, 1844.248374) rotate(-56.000000) translate(-851.451453, -1844.248374) "></path>
            <path d="M683.365264,1722.63669 C686.890896,1723.43373 696.783067,1722.62966 713.041776,1720.22449 C729.300484,1717.81932 739.063868,1715.51456 742.331928,1713.31023 C751.102609,1770.19858 726.811075,1820.49048 669.457325,1864.18593 C628.657396,1894.50542 614.292469,1928.75174 626.362544,1966.92486 C619.892799,1966.16005 608.785659,1967.01523 593.041125,1969.49042 C577.296591,1971.96561 568.354286,1973.86431 566.21421,1975.18652 C559.049819,1912.96633 579.615873,1865.56803 627.912372,1832.99163 C676.208872,1800.41523 694.693169,1763.63025 683.365264,1722.63669 Z" id="Rectangle-Copy-61" stroke="#FFFFFF" fill="#FFFFFF" transform="translate(654.451453, 1844.248374) rotate(-56.000000) translate(-654.451453, -1844.248374) "></path>
            <path d="M287.365264,1723.88289 C290.890896,1724.67992 300.783067,1723.87585 317.041776,1721.47068 C333.300484,1719.06551 343.063868,1716.76076 346.331928,1714.55643 C355.102609,1771.44477 330.811075,1821.73667 273.457325,1865.43213 C232.657396,1895.75162 218.292469,1929.99793 230.362544,1968.17106 C223.892799,1967.40624 212.785659,1968.26143 197.041125,1970.73662 C181.296591,1973.2118 172.354286,1975.1105 170.21421,1976.43272 C163.049819,1914.21252 183.615873,1866.81423 231.912372,1834.23783 C280.208872,1801.66143 298.693169,1764.87645 287.365264,1723.88289 Z" id="Rectangle-Copy-60" stroke="#FFFFFF" fill="#FFFFFF" transform="translate(258.451453, 1845.494571) rotate(-56.000000) translate(-258.451453, -1845.494571) "></path>
            <path d="M486.365264,1722.63669 C489.890896,1723.43373 499.783067,1722.62966 516.041776,1720.22449 C532.300484,1717.81932 542.063868,1715.51456 545.331928,1713.31023 C554.102609,1770.19858 529.811075,1820.49048 472.457325,1864.18593 C431.657396,1894.50542 417.292469,1928.75174 429.362544,1966.92486 C422.892799,1966.16005 411.785659,1967.01523 396.041125,1969.49042 C380.296591,1971.96561 371.354286,1973.86431 369.21421,1975.18652 C362.049819,1912.96633 382.615873,1865.56803 430.912372,1832.99163 C479.208872,1800.41523 497.693169,1763.63025 486.365264,1722.63669 Z" id="Rectangle-Copy-59" stroke="#FFFFFF" fill="#FFFFFF" transform="translate(457.451453, 1844.248374) rotate(-56.000000) translate(-457.451453, -1844.248374) "></path>
            <path d="M1277.36526,1723.88289 C1280.8909,1724.67992 1290.78307,1723.87585 1307.04178,1721.47068 C1323.30048,1719.06551 1333.06387,1716.76076 1336.33193,1714.55643 C1345.10261,1771.44477 1320.81107,1821.73667 1263.45732,1865.43213 C1222.6574,1895.75162 1208.29247,1929.99793 1220.36254,1968.17106 C1213.8928,1967.40624 1202.78566,1968.26143 1187.04112,1970.73662 C1171.29659,1973.2118 1162.35429,1975.1105 1160.21421,1976.43272 C1153.04982,1914.21252 1173.61587,1866.81423 1221.91237,1834.23783 C1270.20887,1801.66143 1288.69317,1764.87645 1277.36526,1723.88289 Z" id="Rectangle-Copy-58" stroke="#FFFFFF" fill="#FFFFFF" transform="translate(1248.451453, 1845.494571) rotate(-56.000000) translate(-1248.451453, -1845.494571) "></path>
            <path d="M1475.36526,1722.63669 C1478.8909,1723.43373 1488.78307,1722.62966 1505.04178,1720.22449 C1521.30048,1717.81932 1531.06387,1715.51456 1534.33193,1713.31023 C1543.10261,1770.19858 1518.81107,1820.49048 1461.45732,1864.18593 C1420.6574,1894.50542 1406.29247,1928.75174 1418.36254,1966.92486 C1411.8928,1966.16005 1400.78566,1967.01523 1385.04112,1969.49042 C1369.29659,1971.96561 1360.35429,1973.86431 1358.21421,1975.18652 C1351.04982,1912.96633 1371.61587,1865.56803 1419.91237,1832.99163 C1468.20887,1800.41523 1486.69317,1763.63025 1475.36526,1722.63669 Z" id="Rectangle-Copy-57" stroke="#FFFFFF" fill="#FFFFFF" transform="translate(1446.451453, 1844.248374) rotate(-56.000000) translate(-1446.451453, -1844.248374) "></path>
            <path d="M1078.36526,867.707534 C1081.8909,868.50457 1091.78307,867.700502 1108.04178,865.295331 C1124.30048,862.89016 1134.06387,860.585407 1137.33193,858.381073 C1146.10261,915.269421 1121.81107,965.561322 1064.45732,1009.25678 C1023.6574,1039.57627 1009.29247,1073.82258 1021.36254,1111.99571 C1014.8928,1111.23089 1003.78566,1112.08608 988.041125,1114.56126 C972.296591,1117.03645 963.354286,1118.93515 961.21421,1120.25736 C954.049819,1058.03717 974.615873,1010.63887 1022.91237,978.062473 C1071.20887,945.486073 1089.69317,908.701093 1078.36526,867.707534 Z" id="Rectangle-Copy-42" stroke="#FFFFFF" fill="#FFFFFF" transform="translate(1049.451453, 989.319218) rotate(-56.000000) translate(-1049.451453, -989.319218) "></path>
            <path d="M879.365264,866.461337 C882.890896,867.258372 892.783067,866.454304 909.041776,864.049133 C925.300484,861.643962 935.063868,859.33921 938.331928,857.134876 C947.102609,914.023223 922.811075,964.315125 865.457325,1008.01058 C824.657396,1038.33007 810.292469,1072.57638 822.362544,1110.74951 C815.892799,1109.98469 804.785659,1110.83988 789.041125,1113.31507 C773.296591,1115.79025 764.354286,1117.68895 762.21421,1119.01117 C755.049819,1056.79097 775.615873,1009.39268 823.912372,976.816276 C872.208872,944.239876 890.693169,907.454896 879.365264,866.461337 Z" id="Rectangle-Copy-41" stroke="#FFFFFF" fill="#FFFFFF" transform="translate(850.451453, 988.073021) rotate(-56.000000) translate(-850.451453, -988.073021) "></path>
            <path d="M682.365264,866.461337 C685.890896,867.258372 695.783067,866.454304 712.041776,864.049133 C728.300484,861.643962 738.063868,859.33921 741.331928,857.134876 C750.102609,914.023223 725.811075,964.315125 668.457325,1008.01058 C627.657396,1038.33007 613.292469,1072.57638 625.362544,1110.74951 C618.892799,1109.98469 607.785659,1110.83988 592.041125,1113.31507 C576.296591,1115.79025 567.354286,1117.68895 565.21421,1119.01117 C558.049819,1056.79097 578.615873,1009.39268 626.912372,976.816276 C675.208872,944.239876 693.693169,907.454896 682.365264,866.461337 Z" id="Rectangle-Copy-40" stroke="#FFFFFF" fill="#FFFFFF" transform="translate(653.451453, 988.073021) rotate(-56.000000) translate(-653.451453, -988.073021) "></path>
            <path d="M286.365264,867.707534 C289.890896,868.50457 299.783067,867.700502 316.041776,865.295331 C332.300484,862.89016 342.063868,860.585407 345.331928,858.381073 C354.102609,915.269421 329.811075,965.561322 272.457325,1009.25678 C231.657396,1039.57627 217.292469,1073.82258 229.362544,1111.99571 C222.892799,1111.23089 211.785659,1112.08608 196.041125,1114.56126 C180.296591,1117.03645 171.354286,1118.93515 169.21421,1120.25736 C162.049819,1058.03717 182.615873,1010.63887 230.912372,978.062473 C279.208872,945.486073 297.693169,908.701093 286.365264,867.707534 Z" id="Rectangle-Copy-39" stroke="#FFFFFF" fill="#FFFFFF" transform="translate(257.451453, 989.319218) rotate(-56.000000) translate(-257.451453, -989.319218) "></path>
            <path d="M485.365264,866.461337 C488.890896,867.258372 498.783067,866.454304 515.041776,864.049133 C531.300484,861.643962 541.063868,859.33921 544.331928,857.134876 C553.102609,914.023223 528.811075,964.315125 471.457325,1008.01058 C430.657396,1038.33007 416.292469,1072.57638 428.362544,1110.74951 C421.892799,1109.98469 410.785659,1110.83988 395.041125,1113.31507 C379.296591,1115.79025 370.354286,1117.68895 368.21421,1119.01117 C361.049819,1056.79097 381.615873,1009.39268 429.912372,976.816276 C478.208872,944.239876 496.693169,907.454896 485.365264,866.461337 Z" id="Rectangle-Copy-38" stroke="#FFFFFF" fill="#FFFFFF" transform="translate(456.451453, 988.073021) rotate(-56.000000) translate(-456.451453, -988.073021) "></path>
            <path d="M1276.36526,867.707534 C1279.8909,868.50457 1289.78307,867.700502 1306.04178,865.295331 C1322.30048,862.89016 1332.06387,860.585407 1335.33193,858.381073 C1344.10261,915.269421 1319.81107,965.561322 1262.45732,1009.25678 C1221.6574,1039.57627 1207.29247,1073.82258 1219.36254,1111.99571 C1212.8928,1111.23089 1201.78566,1112.08608 1186.04112,1114.56126 C1170.29659,1117.03645 1161.35429,1118.93515 1159.21421,1120.25736 C1152.04982,1058.03717 1172.61587,1010.63887 1220.91237,978.062473 C1269.20887,945.486073 1287.69317,908.701093 1276.36526,867.707534 Z" id="Rectangle-Copy-37" stroke="#FFFFFF" fill="#FFFFFF" transform="translate(1247.451453, 989.319218) rotate(-56.000000) translate(-1247.451453, -989.319218) "></path>
            <path d="M1474.36526,866.461337 C1477.8909,867.258372 1487.78307,866.454304 1504.04178,864.049133 C1520.30048,861.643962 1530.06387,859.33921 1533.33193,857.134876 C1542.10261,914.023223 1517.81107,964.315125 1460.45732,1008.01058 C1419.6574,1038.33007 1405.29247,1072.57638 1417.36254,1110.74951 C1410.8928,1109.98469 1399.78566,1110.83988 1384.04112,1113.31507 C1368.29659,1115.79025 1359.35429,1117.68895 1357.21421,1119.01117 C1350.04982,1056.79097 1370.61587,1009.39268 1418.91237,976.816276 C1467.20887,944.239876 1485.69317,907.454896 1474.36526,866.461337 Z" id="Rectangle-Copy-36" stroke="#FFFFFF" fill="#FFFFFF" transform="translate(1445.451453, 988.073021) rotate(-56.000000) translate(-1445.451453, -988.073021) "></path>
            <path d="M1079.36526,447.739084 C1082.8909,448.536119 1092.78307,447.732051 1109.04178,445.32688 C1125.30048,442.921709 1135.06387,440.616956 1138.33193,438.412622 C1147.10261,495.30097 1122.81107,545.592871 1065.45732,589.288326 C1024.6574,619.607818 1010.29247,653.854129 1022.36254,692.027258 C1015.8928,691.262441 1004.78566,692.117626 989.041125,694.592814 C973.296591,697.068001 964.354286,698.966701 962.21421,700.288913 C955.049819,638.068719 975.615873,590.670423 1023.91237,558.094022 C1072.20887,525.517622 1090.69317,488.732643 1079.36526,447.739084 Z" id="Rectangle-Copy-49" stroke="#FFFFFF" fill="#FFFFFF" transform="translate(1050.451453, 569.350768) rotate(-56.000000) translate(-1050.451453, -569.350768) "></path>
            <path d="M880.365264,446.492887 C883.890896,447.289922 893.783067,446.485854 910.041776,444.080683 C926.300484,441.675512 936.063868,439.370759 939.331928,437.166425 C948.102609,494.054773 923.811075,544.346674 866.457325,588.042129 C825.657396,618.361621 811.292469,652.607932 823.362544,690.781061 C816.892799,690.016244 805.785659,690.871429 790.041125,693.346616 C774.296591,695.821804 765.354286,697.720503 763.21421,699.042716 C756.049819,636.822522 776.615873,589.424225 824.912372,556.847825 C873.208872,524.271425 891.693169,487.486445 880.365264,446.492887 Z" id="Rectangle-Copy-48" stroke="#FFFFFF" fill="#FFFFFF" transform="translate(851.451453, 568.104570) rotate(-56.000000) translate(-851.451453, -568.104570) "></path>
            <path d="M683.365264,446.492887 C686.890896,447.289922 696.783067,446.485854 713.041776,444.080683 C729.300484,441.675512 739.063868,439.370759 742.331928,437.166425 C751.102609,494.054773 726.811075,544.346674 669.457325,588.042129 C628.657396,618.361621 614.292469,652.607932 626.362544,690.781061 C619.892799,690.016244 608.785659,690.871429 593.041125,693.346616 C577.296591,695.821804 568.354286,697.720503 566.21421,699.042716 C559.049819,636.822522 579.615873,589.424225 627.912372,556.847825 C676.208872,524.271425 694.693169,487.486445 683.365264,446.492887 Z" id="Rectangle-Copy-47" stroke="#FFFFFF" fill="#FFFFFF" transform="translate(654.451453, 568.104570) rotate(-56.000000) translate(-654.451453, -568.104570) "></path>
            <path d="M287.365264,447.739084 C290.890896,448.536119 300.783067,447.732051 317.041776,445.32688 C333.300484,442.921709 343.063868,440.616956 346.331928,438.412622 C355.102609,495.30097 330.811075,545.592871 273.457325,589.288326 C232.657396,619.607818 218.292469,653.854129 230.362544,692.027258 C223.892799,691.262441 212.785659,692.117626 197.041125,694.592814 C181.296591,697.068001 172.354286,698.966701 170.21421,700.288913 C163.049819,638.068719 183.615873,590.670423 231.912372,558.094022 C280.208872,525.517622 298.693169,488.732643 287.365264,447.739084 Z" id="Rectangle-Copy-46" stroke="#FFFFFF" fill="#FFFFFF" transform="translate(258.451453, 569.350768) rotate(-56.000000) translate(-258.451453, -569.350768) "></path>
            <path d="M486.365264,446.492887 C489.890896,447.289922 499.783067,446.485854 516.041776,444.080683 C532.300484,441.675512 542.063868,439.370759 545.331928,437.166425 C554.102609,494.054773 529.811075,544.346674 472.457325,588.042129 C431.657396,618.361621 417.292469,652.607932 429.362544,690.781061 C422.892799,690.016244 411.785659,690.871429 396.041125,693.346616 C380.296591,695.821804 371.354286,697.720503 369.21421,699.042716 C362.049819,636.822522 382.615873,589.424225 430.912372,556.847825 C479.208872,524.271425 497.693169,487.486445 486.365264,446.492887 Z" id="Rectangle-Copy-45" stroke="#FFFFFF" fill="#FFFFFF" transform="translate(457.451453, 568.104570) rotate(-56.000000) translate(-457.451453, -568.104570) "></path>
            <path d="M1277.36526,447.739084 C1280.8909,448.536119 1290.78307,447.732051 1307.04178,445.32688 C1323.30048,442.921709 1333.06387,440.616956 1336.33193,438.412622 C1345.10261,495.30097 1320.81107,545.592871 1263.45732,589.288326 C1222.6574,619.607818 1208.29247,653.854129 1220.36254,692.027258 C1213.8928,691.262441 1202.78566,692.117626 1187.04112,694.592814 C1171.29659,697.068001 1162.35429,698.966701 1160.21421,700.288913 C1153.04982,638.068719 1173.61587,590.670423 1221.91237,558.094022 C1270.20887,525.517622 1288.69317,488.732643 1277.36526,447.739084 Z" id="Rectangle-Copy-44" stroke="#FFFFFF" fill="#FFFFFF" transform="translate(1248.451453, 569.350768) rotate(-56.000000) translate(-1248.451453, -569.350768) "></path>
            <path d="M1475.36526,446.492887 C1478.8909,447.289922 1488.78307,446.485854 1505.04178,444.080683 C1521.30048,441.675512 1531.06387,439.370759 1534.33193,437.166425 C1543.10261,494.054773 1518.81107,544.346674 1461.45732,588.042129 C1420.6574,618.361621 1406.29247,652.607932 1418.36254,690.781061 C1411.8928,690.016244 1400.78566,690.871429 1385.04112,693.346616 C1369.29659,695.821804 1360.35429,697.720503 1358.21421,699.042716 C1351.04982,636.822522 1371.61587,589.424225 1419.91237,556.847825 C1468.20887,524.271425 1486.69317,487.486445 1475.36526,446.492887 Z" id="Rectangle-Copy-43" stroke="#FFFFFF" fill="#FFFFFF" transform="translate(1446.451453, 568.104570) rotate(-56.000000) translate(-1446.451453, -568.104570) "></path>
            <path d="M1079.36526,30.2630273 C1082.8909,31.0600626 1092.78307,30.2559946 1109.04178,27.8508236 C1125.30048,25.4456525 1135.06387,23.1409 1138.33193,20.9365661 C1147.10261,77.8249135 1122.81107,128.116815 1065.45732,171.81227 C1024.6574,202.131762 1010.29247,236.378073 1022.36254,274.551202 C1015.8928,273.786385 1004.78566,274.64157 989.041125,277.116757 C973.296591,279.591945 964.354286,281.490644 962.21421,282.812856 C955.049819,220.592663 975.615873,173.194366 1023.91237,140.617966 C1072.20887,108.041566 1090.69317,71.2565863 1079.36526,30.2630273 Z" id="Rectangle-Copy-56" stroke="#FFFFFF" fill="#FFFFFF" transform="translate(1050.451453, 151.874711) rotate(-56.000000) translate(-1050.451453, -151.874711) "></path>
            <path d="M880.365264,29.0168302 C883.890896,29.8138654 893.783067,29.0097975 910.041776,26.6046264 C926.300484,24.1994553 936.063868,21.8947028 939.331928,19.6903689 C948.102609,76.5787163 923.811075,126.870618 866.457325,170.566073 C825.657396,200.885565 811.292469,235.131875 823.362544,273.305005 C816.892799,272.540188 805.785659,273.395373 790.041125,275.87056 C774.296591,278.345747 765.354286,280.244447 763.21421,281.566659 C756.049819,219.346466 776.615873,171.948169 824.912372,139.371769 C873.208872,106.795369 891.693169,70.0103891 880.365264,29.0168302 Z" id="Rectangle-Copy-55" stroke="#FFFFFF" fill="#FFFFFF" transform="translate(851.451453, 150.628514) rotate(-56.000000) translate(-851.451453, -150.628514) "></path>
            <path d="M683.365264,29.0168302 C686.890896,29.8138654 696.783067,29.0097975 713.041776,26.6046264 C729.300484,24.1994553 739.063868,21.8947028 742.331928,19.6903689 C751.102609,76.5787163 726.811075,126.870618 669.457325,170.566073 C628.657396,200.885565 614.292469,235.131875 626.362544,273.305005 C619.892799,272.540188 608.785659,273.395373 593.041125,275.87056 C577.296591,278.345747 568.354286,280.244447 566.21421,281.566659 C559.049819,219.346466 579.615873,171.948169 627.912372,139.371769 C676.208872,106.795369 694.693169,70.0103891 683.365264,29.0168302 Z" id="Rectangle-Copy-54" stroke="#FFFFFF" fill="#FFFFFF" transform="translate(654.451453, 150.628514) rotate(-56.000000) translate(-654.451453, -150.628514) "></path>
            <path d="M287.365264,30.2630273 C290.890896,31.0600626 300.783067,30.2559946 317.041776,27.8508236 C333.300484,25.4456525 343.063868,23.1409 346.331928,20.9365661 C355.102609,77.8249135 330.811075,128.116815 273.457325,171.81227 C232.657396,202.131762 218.292469,236.378073 230.362544,274.551202 C223.892799,273.786385 212.785659,274.64157 197.041125,277.116757 C181.296591,279.591945 172.354286,281.490644 170.21421,282.812856 C163.049819,220.592663 183.615873,173.194366 231.912372,140.617966 C280.208872,108.041566 298.693169,71.2565863 287.365264,30.2630273 Z" id="Rectangle-Copy-53" stroke="#FFFFFF" fill="#FFFFFF" transform="translate(258.451453, 151.874711) rotate(-56.000000) translate(-258.451453, -151.874711) "></path>
            <path d="M486.365264,29.0168302 C489.890896,29.8138654 499.783067,29.0097975 516.041776,26.6046264 C532.300484,24.1994553 542.063868,21.8947028 545.331928,19.6903689 C554.102609,76.5787163 529.811075,126.870618 472.457325,170.566073 C431.657396,200.885565 417.292469,235.131875 429.362544,273.305005 C422.892799,272.540188 411.785659,273.395373 396.041125,275.87056 C380.296591,278.345747 371.354286,280.244447 369.21421,281.566659 C362.049819,219.346466 382.615873,171.948169 430.912372,139.371769 C479.208872,106.795369 497.693169,70.0103891 486.365264,29.0168302 Z" id="Rectangle-Copy-52" stroke="#FFFFFF" fill="#FFFFFF" transform="translate(457.451453, 150.628514) rotate(-56.000000) translate(-457.451453, -150.628514) "></path>
            <path d="M1277.36526,30.2630273 C1280.8909,31.0600626 1290.78307,30.2559946 1307.04178,27.8508236 C1323.30048,25.4456525 1333.06387,23.1409 1336.33193,20.9365661 C1345.10261,77.8249135 1320.81107,128.116815 1263.45732,171.81227 C1222.6574,202.131762 1208.29247,236.378073 1220.36254,274.551202 C1213.8928,273.786385 1202.78566,274.64157 1187.04112,277.116757 C1171.29659,279.591945 1162.35429,281.490644 1160.21421,282.812856 C1153.04982,220.592663 1173.61587,173.194366 1221.91237,140.617966 C1270.20887,108.041566 1288.69317,71.2565863 1277.36526,30.2630273 Z" id="Rectangle-Copy-51" stroke="#FFFFFF" fill="#FFFFFF" transform="translate(1248.451453, 151.874711) rotate(-56.000000) translate(-1248.451453, -151.874711) "></path>
            <path d="M1475.36526,29.0168302 C1478.8909,29.8138654 1488.78307,29.0097975 1505.04178,26.6046264 C1521.30048,24.1994553 1531.06387,21.8947028 1534.33193,19.6903689 C1543.10261,76.5787163 1518.81107,126.870618 1461.45732,170.566073 C1420.6574,200.885565 1406.29247,235.131875 1418.36254,273.305005 C1411.8928,272.540188 1400.78566,273.395373 1385.04112,275.87056 C1369.29659,278.345747 1360.35429,280.244447 1358.21421,281.566659 C1351.04982,219.346466 1371.61587,171.948169 1419.91237,139.371769 C1468.20887,106.795369 1486.69317,70.0103891 1475.36526,29.0168302 Z" id="Rectangle-Copy-50" stroke="#FFFFFF" fill="#FFFFFF" transform="translate(1446.451453, 150.628514) rotate(-56.000000) translate(-1446.451453, -150.628514) "></path>
        </g>
    </g>
</svg>