<?xml version="1.0" encoding="UTF-8"?>
<svg width="30px" height="30px" viewBox="0 0 90 90" version="1.1" xmlns="http://www.w3.org/2000/svg" xmlns:xlink="http://www.w3.org/1999/xlink">
    <!-- Generator: Sketch 63.1 (92452) - https://sketch.com -->
    <title>Group 3</title>
    <desc>Created with Sketch.</desc>
    <g id="Page-1" stroke="none" stroke-width="1" fill="none" fill-rule="evenodd">
        <g id="Group-3">
            <g id="Group-2-Copy">
                <circle id="Oval-Copy" fill="#4D4D4D" cx="45" cy="45" r="45"></circle>
                <circle id="Oval" fill="#FFFFFF" cx="45" cy="45" r="41"></circle>
            </g>
            <path d="M40.9789309,33.6189214 C41.8704885,32.9711669 42.0682208,31.720693 41.4189711,30.8270775 C40.765195,29.9272319 39.5200671,29.7345761 38.6277899,30.3828534 L20.8245695,43.3176502 C20.2955701,43.7019907 20.010836,44.2985221 20.0023599,44.9067982 C19.9706756,45.557264 20.2587354,46.2078189 20.8245695,46.6189214 L38.6277899,59.5537182 C39.5193475,60.2014727 40.7697215,60.0031096 41.4189711,59.1094941 C42.0727472,58.2096485 41.8712081,56.9659275 40.9789309,56.3176502 L27.9729882,46.8682797 L67.6100926,46.8682797 C68.7028581,46.8682797 69.6017502,45.9728492 69.6017502,44.8682797 C69.6017502,43.7560094 68.7100547,42.8682797 67.6100926,42.8682797 L28.2482814,42.8682797 L40.9789309,33.6189214 Z" id="Path" fill="#000000" fill-rule="nonzero"></path>
        </g>
    </g>
</svg>
