<?xml version="1.0" encoding="UTF-8"?>
<svg width="17px" height="17px" viewBox="0 0 17 17" version="1.1" xmlns="http://www.w3.org/2000/svg" xmlns:xlink="http://www.w3.org/1999/xlink">
    <!-- Generator: Sketch 59.1 (86144) - https://sketch.com -->
    <title>linkedin</title>
    <desc>Created with Sketch.</desc>
    <g id="Page-1" stroke="none" stroke-width="1" fill="none" fill-rule="evenodd">
        <g id="linkedin" fill="#000000" fill-rule="nonzero">
            <path d="M5.31275938,14.0449219 L2.98854063,14.0449219 L2.98854063,6.54101563 L5.31275938,6.54101563 L5.31275938,14.0449219 Z M5.54466249,4.15026093 C5.54466249,3.39891054 4.93507384,2.7890625 4.18411255,2.7890625 C3.43029785,2.7890625 2.82226562,3.39891054 2.82226562,4.15026093 C2.82226562,4.90187071 3.43029785,5.51171875 4.18411255,5.51171875 C4.93507384,5.51171875 5.54466249,4.90187071 5.54466249,4.15026093 Z M14.0117188,9.91658018 C14.0117188,7.90221406 13.586174,6.40820313 11.2330322,6.40820313 C10.1023102,6.40820313 9.34330751,6.97369385 9.03345489,7.56175234 L9.03125,7.56175234 L9.03125,6.54101563 L6.7734375,6.54101563 L6.7734375,14.0449219 L9.03125,14.0449219 L9.03125,10.3191681 C9.03125,9.3434372 9.27962495,8.39818574 10.4890747,8.39818574 C11.6820526,8.39818574 11.7207031,9.51399229 11.7207031,10.3811646 L11.7207031,14.0449219 L14.0117188,14.0449219 L14.0117188,9.91658018 Z M17,15.0078125 L17,1.9921875 C17,0.893630965 16.106369,5.68434189e-14 15.0078125,5.68434189e-14 L1.9921875,5.68434189e-14 C0.893630965,5.68434189e-14 0,0.893630965 0,1.9921875 L0,15.0078125 C0,16.106369 0.893630965,17 1.9921875,17 L15.0078125,17 C16.106369,17 17,16.106369 17,15.0078125 Z M15.0078125,1.328125 C15.3739548,1.328125 15.671875,1.62604522 15.671875,1.9921875 L15.671875,15.0078125 C15.671875,15.3739548 15.3739548,15.671875 15.0078125,15.671875 L1.9921875,15.671875 C1.62604522,15.671875 1.328125,15.3739548 1.328125,15.0078125 L1.328125,1.9921875 C1.328125,1.62604522 1.62604522,1.328125 1.9921875,1.328125 L15.0078125,1.328125 Z" id="Shape"></path>
        </g>
    </g>
</svg>