<?xml version="1.0" encoding="UTF-8"?>
<svg width="17px" height="17px" viewBox="0 0 17 17" version="1.1" xmlns="http://www.w3.org/2000/svg" xmlns:xlink="http://www.w3.org/1999/xlink">
    <!-- Generator: Sketch 59.1 (86144) - https://sketch.com -->
    <title>medium</title>
    <desc>Created with Sketch.</desc>
    <g id="Page-1" stroke="none" stroke-width="1" fill="none" fill-rule="evenodd">
        <g id="medium" fill="#000000" fill-rule="nonzero">
            <path d="M15.6435417,2.02258128 L17,0.386114943 L17,0.0279146141 L12.3009167,0.0279146141 L8.95191667,10.5398883 L5.14179167,0.0279146141 L0.214625,0.0279146141 L0.214625,0.386114943 L1.79916667,2.79168473 C1.95358333,2.96944499 2.03433333,3.22938588 2.01379167,3.4911133 L2.01379167,12.9445649 C2.06266667,13.2848998 1.97483333,13.6350608 1.785,13.8824959 L0,16.6105353 L0,16.9642693 L5.06104167,16.9642693 L5.06104167,16.606069 L3.27604167,13.8824959 C3.08266667,13.6341675 2.99129167,13.2902594 3.03025,12.9445649 L3.03025,4.76759278 L7.47291667,16.9687356 L7.98929167,16.9687356 L11.8093333,4.76759278 L11.8093333,14.4872381 C11.8093333,14.7436059 11.8093333,14.7963087 11.6761667,14.964243 L10.302,16.6409064 L10.302,17 L16.9688333,17 L16.9688333,16.6417997 L15.64425,15.0062266 C15.5280833,14.8954614 15.467875,14.7096617 15.4926667,14.5292217 L15.4926667,2.49958621 C15.467875,2.31825287 15.527375,2.1324532 15.6435417,2.02258128 L15.6435417,2.02258128 Z" id="Path"></path>
        </g>
    </g>
</svg>