<?xml version="1.0" encoding="UTF-8"?>
<svg width="76px" height="52px" viewBox="0 0 76 52" version="1.1" xmlns="http://www.w3.org/2000/svg" xmlns:xlink="http://www.w3.org/1999/xlink">
    <!-- Generator: Sketch 63.1 (92452) - https://sketch.com -->
    <title>noun_bullet list_894140</title>
    <desc>Created with Sketch.</desc>
    <g id="Page-1" stroke="none" stroke-width="1" fill="none" fill-rule="evenodd">
        <g id="noun_bullet-list_894140" fill="#F0F0F0" fill-rule="nonzero">
            <g id="Group">
                <path d="M7.74776119,12 L6.45223881,12 C3.39850746,12 0.9,9.3 0.9,6 C0.9,2.7 3.39850746,0 6.45223881,0 L7.74776119,0 C10.8014925,0 13.3,2.7 13.3,6 C13.3,9.3 10.8014925,12 7.74776119,12 Z" id="Path"></path>
                <path d="M71.8,9.5 L20.8,9.5 C18.9,9.5 17.3,7.9 17.3,6 C17.3,4.1 18.9,2.5 20.8,2.5 L71.8,2.5 C73.7,2.5 75.3,4.1 75.3,6 C75.3,7.9 73.7,9.5 71.8,9.5 Z" id="Path"></path>
                <path d="M7.74776119,32 L6.45223881,32 C3.39850746,32 0.9,29.3 0.9,26 C0.9,22.7 3.39850746,20 6.45223881,20 L7.74776119,20 C10.8014925,20 13.3,22.7 13.3,26 C13.3,29.3 10.8014925,32 7.74776119,32 Z" id="Path"></path>
                <path d="M71.8,29.5 L20.8,29.5 C18.9,29.5 17.3,27.9 17.3,26 C17.3,24.1 18.9,22.5 20.8,22.5 L71.8,22.5 C73.7,22.5 75.3,24.1 75.3,26 C75.3,27.9 73.7,29.5 71.8,29.5 Z" id="Path"></path>
                <path d="M7.74776119,52 L6.45223881,52 C3.39850746,52 0.9,49.3 0.9,46 C0.9,42.7 3.39850746,40 6.45223881,40 L7.74776119,40 C10.8014925,40 13.3,42.7 13.3,46 C13.3,49.3 10.8014925,52 7.74776119,52 Z" id="Path"></path>
                <path d="M71.8,49.5 L20.8,49.5 C18.9,49.5 17.3,47.9 17.3,46 C17.3,44.1 18.9,42.5 20.8,42.5 L71.8,42.5 C73.7,42.5 75.3,44.1 75.3,46 C75.3,47.9 73.7,49.5 71.8,49.5 Z" id="Path"></path>
            </g>
        </g>
    </g>
</svg>
