<?xml version="1.0" encoding="UTF-8"?>
<svg width="56px" height="58px" viewBox="0 0 56 58" version="1.1" xmlns="http://www.w3.org/2000/svg" xmlns:xlink="http://www.w3.org/1999/xlink">
    <!-- Generator: Sketch 59.1 (86144) - https://sketch.com -->
    <title>noun_finance_1024822</title>
    <desc>Created with Sketch.</desc>
    <g id="Page-1" stroke="none" stroke-width="1" fill="none" fill-rule="evenodd">
        <g id="noun_finance_1024822" fill="#437963" fill-rule="nonzero">
            <g id="Group">
                <path d="M52.5,0 L29.1666667,0 C27.2366536,0 25.6666667,1.62605791 25.6666667,3.625 L25.6666667,12.0833333 L3.5,12.0833333 C1.56998695,12.0833333 0,13.7093912 0,15.7083333 L0,54.375 C0,56.3739421 1.56998695,58 3.5,58 L26.8333333,58 C28.7633464,58 30.3333333,56.3739421 30.3333333,54.375 L30.3333333,45.9166667 L52.5,45.9166667 C54.430013,45.9166667 56,44.2906088 56,42.2916667 L56,3.625 C56,1.62605791 54.430013,0 52.5,0 Z M29.1666667,2.41666667 L52.5,2.41666667 C53.1431477,2.41666667 53.6666667,2.95829266 53.6666667,3.625 L53.6666667,6.04166667 L28,6.04166667 L28,3.625 C28,2.95829266 28.5235189,2.41666667 29.1666667,2.41666667 Z M2.33333333,49.5416667 L2.33333333,20.5416667 L25.6666667,20.5416667 L25.6666667,42.2916667 C25.6666667,43.8648453 26.6449178,45.1935399 28,45.6939392 L28,49.5416667 L2.33333333,49.5416667 Z M28,37.4583333 L28,8.45833333 L53.6666667,8.45833333 L53.6666667,37.4583333 L28,37.4583333 Z M3.5,14.5 L25.6666667,14.5 L25.6666667,18.125 L2.33333333,18.125 L2.33333333,15.7083333 C2.33333333,15.041626 2.85685225,14.5 3.5,14.5 Z M26.8333333,55.5833333 L3.5,55.5833333 C2.85685225,55.5833333 2.33333333,55.0417073 2.33333333,54.375 L2.33333333,51.9583333 L28,51.9583333 L28,54.375 C28,55.0417073 27.4764811,55.5833333 26.8333333,55.5833333 Z M52.5,43.5 L29.1666667,43.5 C28.5235189,43.5 28,42.958374 28,42.2916667 L28,39.875 L53.6666667,39.875 L53.6666667,42.2916667 C53.6666667,42.958374 53.1431477,43.5 52.5,43.5 Z" id="Shape"></path>
                <path d="M40.8333333,12.0833333 C35.043864,12.0833333 30.3333333,16.9615072 30.3333333,22.9583333 C30.3333333,28.9551595 35.043864,33.8333333 40.8333333,33.8333333 C46.6228027,33.8333333 51.3333333,28.9551595 51.3333333,22.9583333 C51.3333333,16.9615072 46.6228027,12.0833333 40.8333333,12.0833333 Z M40.8333333,31.4166667 C36.3301595,31.4166667 32.6666667,27.6217448 32.6666667,22.9583333 C32.6666667,18.2949219 36.3301595,14.5 40.8333333,14.5 C45.3365072,14.5 49,18.2949219 49,22.9583333 C49,27.6217448 45.3365072,31.4166667 40.8333333,31.4166667 Z" id="Shape"></path>
                <path d="M41.4899394,21.9529623 L41.4460043,21.9529623 L41.4460043,19.1112697 C42.1954651,19.2219697 42.8902384,19.5147604 43.5328166,19.9883881 L44.4818013,18.597079 C43.5280456,17.9229228 42.5161133,17.5440649 41.4460042,17.464119 L41.4460042,16.6927592 L40.5124004,16.6927592 L40.5124004,17.4481151 C39.5681865,17.4985606 38.8020631,17.8011603 38.2129618,18.3559877 C37.6238607,18.9095613 37.330485,19.6230267 37.330485,20.4939499 C37.330485,21.3661271 37.5858358,22.0242793 38.0965373,22.467153 C38.60731,22.9112066 39.4125977,23.2679393 40.5124002,23.5398585 L40.5124002,26.4724859 C39.6453755,26.3322856 38.804484,25.8930995 37.9873046,25.1575089 L36.9218953,26.4724859 C37.9813232,27.430804 39.1786092,27.9794362 40.5124002,28.1208904 L40.5124002,29.22435 L41.4460041,29.22435 L41.4460041,28.1357142 C42.438924,28.0852687 43.2358804,27.7825953 43.8392943,27.2290954 C44.442637,26.674268 44.7443439,25.9571152 44.7443439,25.0750554 C44.7443439,24.1930695 44.4818012,23.520167 43.9556476,23.0563481 C43.4307048,22.5938569 42.6087545,22.2248077 41.4899394,21.9529623 Z M40.5124005,21.681043 C39.9672343,21.500206 39.5966696,21.3108138 39.4030559,21.113973 C39.2083028,20.9171321 39.1108908,20.6514079 39.1108908,20.3131128 C39.1108908,19.9760716 39.2344362,19.6931635 39.4826662,19.4668223 C39.7308962,19.2404073 40.0741172,19.1063283 40.5124005,19.0657653 L40.5124005,21.681043 L40.5124005,21.681043 Z M42.5553487,26.0948817 C42.2821249,26.3273443 41.9127706,26.4676184 41.4460043,26.5180639 L41.4460043,23.7969539 C42.029124,23.9789709 42.428243,24.173378 42.643219,24.378774 C42.8569845,24.5854975 42.9638672,24.8659718 42.9638672,25.2177632 C42.9638672,25.5708084 42.8272908,25.8635991 42.5553487,26.0948817 Z" id="Shape"></path>
                <path d="M15.1666667,26.5833333 C10.6634928,26.5833333 7,30.3782552 7,35.0416667 C7,39.7050781 10.6634928,43.5 15.1666667,43.5 C19.6698405,43.5 23.3333333,39.7050781 23.3333333,35.0416667 C23.3333333,30.3782552 19.6698405,26.5833333 15.1666667,26.5833333 Z M15.1666667,41.0833333 C11.9503581,41.0833333 9.33333333,38.3728434 9.33333333,35.0416667 C9.33333333,31.71049 11.9503581,29 15.1666667,29 C18.3829752,29 21,31.71049 21,35.0416667 C21,38.3728434 18.3829752,41.0833333 15.1666667,41.0833333 Z" id="Shape"></path>
                <path d="M14.9756877,31.8568115 C15.2187195,31.6368128 15.5253398,31.5270716 15.8954773,31.5270716 C16.3970641,31.5270716 16.8058675,31.7987696 17.1223144,32.3421655 L18.0831197,31.5509668 C17.5739848,30.6558531 16.8138427,30.2085545 15.8031922,30.2085545 C15.0392761,30.2085545 14.4218344,30.4300282 13.9513652,30.8739343 C13.4803976,31.3173243 13.2454123,32.022677 13.2454123,32.9894026 L13.2454123,34.4878717 L12.2497864,34.4878717 L12.2497864,35.6629433 L13.2454123,35.6629433 L13.2454123,37.8447875 L12.295929,37.8447875 L12.295929,39.1032713 L18.0600484,39.1032713 L18.0600484,37.8447875 L14.6106771,37.8447875 L14.6106771,35.6629433 L16.5440368,35.6629433 L16.5440368,34.4878718 L14.6106771,34.4878718 L14.6106771,32.9177169 C14.6106771,32.4304454 14.7326558,32.0768102 14.9756877,31.8568115 Z" id="Path"></path>
            </g>
        </g>
    </g>
</svg>