<?xml version="1.0" encoding="UTF-8"?>
<svg width="56px" height="58px" viewBox="0 0 56 58" version="1.1" xmlns="http://www.w3.org/2000/svg" xmlns:xlink="http://www.w3.org/1999/xlink">
    <!-- Generator: Sketch 59.1 (86144) - https://sketch.com -->
    <title>noun_product_2544156</title>
    <desc>Created with Sketch.</desc>
    <g id="Page-1" stroke="none" stroke-width="1" fill="none" fill-rule="evenodd">
        <g id="noun_product_2544156" fill="#534379" fill-rule="nonzero">
            <g id="Group">
                <path d="M53.375,0.994 L2.625,0.994 C1.17775,0.994 0,2.34 0,3.994 L0,55.998 C0,56.551 0.391125,56.998 0.875,56.998 L7.840875,56.998 C7.853125,56.999 7.86275,57.006 7.875,57.006 L14.87675,57.006 C14.889,57.006 14.898625,56.999 14.910875,56.998 L24.465,56.998 C24.47725,56.999 24.486875,57.006 24.499125,57.006 L31.500875,57.006 C31.513125,57.006 31.52275,56.999 31.535,56.998 L41.089125,56.998 C41.101375,56.999 41.111,57.006 41.12325,57.006 L48.125,57.006 C48.13725,57.006 48.146875,56.999 48.159125,56.998 L55.125,56.998 C55.608875,56.998 56,56.551 56,55.998 L56,3.994 C56,2.34 54.82225,0.994 53.375,0.994 Z M41.99825,54.998 L41.99825,52.008 L47.25,52.008 L47.25,54.998 L41.99825,54.998 Z M43.749125,50.008 C43.749125,49.456 44.141125,49.008 44.624125,49.008 C45.107125,49.008 45.499125,49.456 45.499125,50.008 L43.749125,50.008 Z M48.125,50.008 L47.249125,50.008 C47.249125,48.354 46.071375,47.008 44.624125,47.008 C43.176875,47.008 41.999125,48.354 41.999125,50.008 L41.12325,50.008 C40.639375,50.008 40.24825,50.455 40.24825,51.008 L40.24825,54.998 L38.499125,54.998 L38.499125,46.006 L50.749125,46.006 L50.749125,54.998 L49,54.998 L49,51.008 C49,50.455 48.608875,50.008 48.125,50.008 Z M51.624125,44.006 L37.624125,44.006 C37.14025,44.006 36.749125,44.453 36.749125,45.006 L36.749125,54.998 L35.875,54.998 L35.875,45.006 C35.875,44.453 35.483875,44.006 35,44.006 L21,44.006 C20.516125,44.006 20.125,44.453 20.125,45.006 L20.125,54.998 L19.250875,54.998 L19.250875,45.006 C19.250875,44.453 18.85975,44.006 18.375875,44.006 L4.375875,44.006 C3.892,44.006 3.500875,44.453 3.500875,45.006 L3.500875,54.998 L1.75,54.998 L1.75,6.994 L54.25,6.994 L54.25,54.998 L52.499125,54.998 L52.499125,45.006 C52.499125,44.453 52.108,44.006 51.624125,44.006 Z M25.374125,54.998 L25.374125,52.008 L30.625875,52.008 L30.625875,54.998 L25.374125,54.998 Z M27.125,50.008 C27.125,49.456 27.517,49.008 28,49.008 C28.483,49.008 28.875,49.456 28.875,50.008 L27.125,50.008 Z M31.500875,50.008 L30.625,50.008 C30.625,48.354 29.44725,47.008 28,47.008 C26.55275,47.008 25.375,48.354 25.375,50.008 L24.499125,50.008 C24.01525,50.008 23.624125,50.455 23.624125,51.008 L23.624125,54.998 L21.875,54.998 L21.875,46.006 L34.125,46.006 L34.125,54.998 L32.375875,54.998 L32.375875,51.008 C32.375875,50.455 31.98475,50.008 31.500875,50.008 Z M8.75,54.998 L8.75,52.008 L14.00175,52.008 L14.00175,54.998 L8.75,54.998 Z M10.5,50.008 C10.5,49.456 10.892,49.008 11.375,49.008 C11.858,49.008 12.25,49.456 12.25,50.008 L10.5,50.008 Z M14.87675,50.008 L14,50.008 C14,48.354 12.82225,47.008 11.375,47.008 C9.92775,47.008 8.75,48.354 8.75,50.008 L7.875,50.008 C7.391125,50.008 7,50.455 7,51.008 L7,54.998 L5.250875,54.998 L5.250875,46.006 L17.500875,46.006 L17.500875,54.998 L15.75175,54.998 L15.75175,51.008 C15.75175,50.455 15.360625,50.008 14.87675,50.008 Z M2.625,2.994 L3.5175,2.994 C3.0345,2.994 2.64775,3.441 2.64775,3.994 C2.64775,4.547 3.04325,4.994 3.527125,4.994 C4.010125,4.994 4.402125,4.547 4.402125,3.994 C4.402125,3.441 4.010125,2.994 3.527125,2.994 L6.141625,2.994 C5.658625,2.994 5.271875,3.441 5.271875,3.994 C5.271875,4.547 5.667375,4.994 6.15125,4.994 C6.63425,4.994 7.02625,4.547 7.02625,3.994 C7.02625,3.441 6.63425,2.994 6.15125,2.994 L8.76925,2.994 C8.28625,2.994 7.8995,3.441 7.8995,3.994 C7.8995,4.547 8.295,4.994 8.778875,4.994 C9.261875,4.994 9.653875,4.547 9.653875,3.994 C9.653875,3.441 9.261875,2.994 8.778875,2.994 L53.375,2.994 C53.858,2.994 54.25,3.442 54.25,3.994 L54.25,4.994 L8.778,4.994 L6.150375,4.994 L3.52625,4.994 L1.75,4.994 L1.75,3.994 C1.75,3.442 2.142,2.994 2.625,2.994 Z" id="Shape"></path>
                <path d="M53.375,0.994 L2.625,0.994 C1.17775,0.994 0,2.34 0,3.994 L0,55.998 C0,56.551 0.391125,56.998 0.875,56.998 L7.840875,56.998 C7.853125,56.999 7.86275,57.006 7.875,57.006 L14.87675,57.006 C14.889,57.006 14.898625,56.999 14.910875,56.998 L24.465,56.998 C24.47725,56.999 24.486875,57.006 24.499125,57.006 L31.500875,57.006 C31.513125,57.006 31.52275,56.999 31.535,56.998 L41.089125,56.998 C41.101375,56.999 41.111,57.006 41.12325,57.006 L48.125,57.006 C48.13725,57.006 48.146875,56.999 48.159125,56.998 L55.125,56.998 C55.608875,56.998 56,56.551 56,55.998 L56,3.994 C56,2.34 54.82225,0.994 53.375,0.994 Z M41.99825,54.998 L41.99825,52.008 L47.25,52.008 L47.25,54.998 L41.99825,54.998 Z M43.749125,50.008 C43.749125,49.456 44.141125,49.008 44.624125,49.008 C45.107125,49.008 45.499125,49.456 45.499125,50.008 L43.749125,50.008 Z M48.125,50.008 L47.249125,50.008 C47.249125,48.354 46.071375,47.008 44.624125,47.008 C43.176875,47.008 41.999125,48.354 41.999125,50.008 L41.12325,50.008 C40.639375,50.008 40.24825,50.455 40.24825,51.008 L40.24825,54.998 L38.499125,54.998 L38.499125,46.006 L50.749125,46.006 L50.749125,54.998 L49,54.998 L49,51.008 C49,50.455 48.608875,50.008 48.125,50.008 Z M51.624125,44.006 L37.624125,44.006 C37.14025,44.006 36.749125,44.453 36.749125,45.006 L36.749125,54.998 L35.875,54.998 L35.875,45.006 C35.875,44.453 35.483875,44.006 35,44.006 L21,44.006 C20.516125,44.006 20.125,44.453 20.125,45.006 L20.125,54.998 L19.250875,54.998 L19.250875,45.006 C19.250875,44.453 18.85975,44.006 18.375875,44.006 L4.375875,44.006 C3.892,44.006 3.500875,44.453 3.500875,45.006 L3.500875,54.998 L1.75,54.998 L1.75,6.994 L54.25,6.994 L54.25,54.998 L52.499125,54.998 L52.499125,45.006 C52.499125,44.453 52.108,44.006 51.624125,44.006 Z M25.374125,54.998 L25.374125,52.008 L30.625875,52.008 L30.625875,54.998 L25.374125,54.998 Z M27.125,50.008 C27.125,49.456 27.517,49.008 28,49.008 C28.483,49.008 28.875,49.456 28.875,50.008 L27.125,50.008 Z M31.500875,50.008 L30.625,50.008 C30.625,48.354 29.44725,47.008 28,47.008 C26.55275,47.008 25.375,48.354 25.375,50.008 L24.499125,50.008 C24.01525,50.008 23.624125,50.455 23.624125,51.008 L23.624125,54.998 L21.875,54.998 L21.875,46.006 L34.125,46.006 L34.125,54.998 L32.375875,54.998 L32.375875,51.008 C32.375875,50.455 31.98475,50.008 31.500875,50.008 Z M8.75,54.998 L8.75,52.008 L14.00175,52.008 L14.00175,54.998 L8.75,54.998 Z M10.5,50.008 C10.5,49.456 10.892,49.008 11.375,49.008 C11.858,49.008 12.25,49.456 12.25,50.008 L10.5,50.008 Z M14.87675,50.008 L14,50.008 C14,48.354 12.82225,47.008 11.375,47.008 C9.92775,47.008 8.75,48.354 8.75,50.008 L7.875,50.008 C7.391125,50.008 7,50.455 7,51.008 L7,54.998 L5.250875,54.998 L5.250875,46.006 L17.500875,46.006 L17.500875,54.998 L15.75175,54.998 L15.75175,51.008 C15.75175,50.455 15.360625,50.008 14.87675,50.008 Z M2.625,2.994 L3.5175,2.994 C3.0345,2.994 2.64775,3.441 2.64775,3.994 C2.64775,4.547 3.04325,4.994 3.527125,4.994 C4.010125,4.994 4.402125,4.547 4.402125,3.994 C4.402125,3.441 4.010125,2.994 3.527125,2.994 L6.141625,2.994 C5.658625,2.994 5.271875,3.441 5.271875,3.994 C5.271875,4.547 5.667375,4.994 6.15125,4.994 C6.63425,4.994 7.02625,4.547 7.02625,3.994 C7.02625,3.441 6.63425,2.994 6.15125,2.994 L8.76925,2.994 C8.28625,2.994 7.8995,3.441 7.8995,3.994 C7.8995,4.547 8.295,4.994 8.778875,4.994 C9.261875,4.994 9.653875,4.547 9.653875,3.994 C9.653875,3.441 9.261875,2.994 8.778875,2.994 L53.375,2.994 C53.858,2.994 54.25,3.442 54.25,3.994 L54.25,4.994 L8.778,4.994 L6.150375,4.994 L3.52625,4.994 L1.75,4.994 L1.75,3.994 C1.75,3.442 2.142,2.994 2.625,2.994 Z" id="Shape-Copy"></path>
                <path d="M35,8.994 L4.375875,8.994 C3.892,8.994 3.500875,9.441 3.500875,9.994 L3.500875,40.994 C3.500875,41.547 3.892,41.994 4.375875,41.994 L35,41.994 C35.483875,41.994 35.875,41.547 35.875,40.994 L35.875,9.994 C35.875,9.441 35.483875,8.994 35,8.994 Z M34.125,39.994 L5.250875,39.994 L5.250875,10.994 L34.125,10.994 L34.125,39.994 Z" id="Shape"></path>
                <path d="M37.625,19.998 L51.624125,19.998 C52.108,19.998 52.499125,19.551 52.499125,18.998 C52.499125,18.445 52.108,17.998 51.624125,17.998 L37.625,17.998 C37.141125,17.998 36.75,18.445 36.75,18.998 C36.75,19.551 37.141125,19.998 37.625,19.998 Z" id="Path"></path>
                <path d="M37.625,16.998 L51.624125,16.998 C52.108,16.998 52.499125,16.551 52.499125,15.998 C52.499125,15.445 52.108,14.998 51.624125,14.998 L37.625,14.998 C37.141125,14.998 36.75,15.445 36.75,15.998 C36.75,16.551 37.141125,16.998 37.625,16.998 Z" id="Path"></path>
                <path d="M37.625,22.998 L44.617125,22.998 C45.101,22.998 45.492125,22.551 45.492125,21.998 C45.492125,21.445 45.101,20.998 44.617125,20.998 L37.625,20.998 C37.141125,20.998 36.75,21.445 36.75,21.998 C36.75,22.551 37.141125,22.998 37.625,22.998 Z" id="Path"></path>
                <path d="M37.625,27.996 L44.617125,27.996 C45.101,27.996 45.492125,27.549 45.492125,26.996 C45.492125,26.443 45.101,25.996 44.617125,25.996 L37.625,25.996 C37.141125,25.996 36.75,26.443 36.75,26.996 C36.75,27.549 37.141125,27.996 37.625,27.996 Z" id="Path"></path>
                <path d="M52.5,31.994 C52.5,31.441 52.108875,30.994 51.625,30.994 L37.625,30.994 C37.141125,30.994 36.75,31.441 36.75,31.994 L36.75,34.994 C36.75,35.547 37.141125,35.994 37.625,35.994 L51.625,35.994 C52.108875,35.994 52.5,35.547 52.5,34.994 L52.5,31.994 Z M50.75,33.994 L38.5,33.994 L38.5,32.994 L50.75,32.994 L50.75,33.994 Z" id="Shape"></path>
                <path d="M49,25.998 C49,25.445 48.608875,24.998 48.125,24.998 L47.250875,24.998 C47.240375,24.998 47.2325,25.004 47.222875,25.005 C47.166875,25.007 47.1135,25.028 47.058375,25.043 C46.99975,25.059 46.939375,25.067 46.886,25.096 C46.878125,25.1 46.8685,25.099 46.860625,25.104 C46.82125,25.126 46.79675,25.165 46.762625,25.192 C46.70925,25.234 46.65675,25.271 46.613875,25.325 C46.575375,25.372 46.550875,25.428 46.521125,25.482 C46.49225,25.537 46.459875,25.586 46.43975,25.647 C46.417,25.715 46.41175,25.787 46.402125,25.859 C46.396,25.907 46.377625,25.949 46.377625,25.999 C46.377625,26.01 46.382875,26.019 46.382875,26.029 C46.384625,26.095 46.403875,26.159 46.417875,26.225 C46.431875,26.29 46.438,26.356 46.463375,26.415 C46.466875,26.425 46.466,26.436 46.470375,26.445 L46.787125,27.171 C46.5465,27.349 46.377625,27.644 46.377625,27.996 C46.377625,28.549 46.76875,28.996 47.252625,28.996 L48.125,28.996 L48.125,28.996 C48.125875,28.996 48.125875,28.996 48.125875,28.996 C48.127625,28.996 48.129375,28.995 48.131125,28.995 C48.260625,28.994 48.381375,28.956 48.4925,28.897 C48.500375,28.892 48.509125,28.894 48.516125,28.89 C48.5555,28.868 48.58,28.829 48.615,28.802 C48.6675,28.76 48.72,28.723 48.762875,28.669 C48.801375,28.622 48.825875,28.566 48.855625,28.512 C48.8845,28.457 48.916875,28.408 48.937875,28.346 C48.95975,28.279 48.965,28.207 48.974625,28.135 C48.98075,28.087 48.999125,28.045 48.999125,27.995 C48.999125,27.984 48.993875,27.975 48.993875,27.965 C48.992125,27.899 48.972875,27.835 48.958875,27.77 C48.944875,27.705 48.93875,27.638 48.913375,27.578 C48.909875,27.569 48.91075,27.558 48.906375,27.549 L48.589625,26.823 C48.831125,26.646 49,26.351 49,25.998 Z" id="Path"></path>
                <path d="M9.625,37.994 L29.749125,37.994 C30.233,37.994 30.624125,37.547 30.624125,36.994 L30.624125,19.994 C30.624125,19.441 30.233,18.994 29.749125,18.994 L27.12675,18.994 L27.12675,18.992 C27.12675,18.988 27.1285,18.986 27.1285,18.982 C27.1285,15.673 24.773875,12.982 21.8785,12.982 C21.09625,12.982 20.356875,13.184 19.68925,13.536 C19.02075,13.184 18.281375,12.982 17.499125,12.982 C14.60375,12.982 12.249125,15.673 12.249125,18.982 L12.249125,18.994 L9.625,18.994 C9.141125,18.994 8.75,19.441 8.75,19.994 L8.75,36.994 C8.75,37.547 9.141125,37.994 9.625,37.994 Z M28.874125,35.994 L26.249125,35.994 L26.249125,20.994 L28.874125,20.994 L28.874125,35.994 Z M25.377625,18.976 C25.377625,18.979 25.37675,18.981 25.37675,18.983 L25.37675,18.995 L22.750875,18.995 L22.750875,18.983 C22.750875,18.978 22.74825,18.974 22.74825,18.97 C22.745625,17.462 22.250375,16.086 21.441875,15.033 C21.58625,15.012 21.728875,14.982 21.8785,14.982 C23.807,14.982 25.375,16.773 25.377625,18.976 Z M18.3785,18.982 C18.3785,17.728 18.8965,16.621 19.68925,15.886 C20.481125,16.62 20.999125,17.728 20.999125,18.982 C20.999125,18.986 21.000875,18.988 21.000875,18.992 L21.000875,18.994 L18.37675,18.994 C18.37675,18.99 18.3785,18.986 18.3785,18.982 Z M17.499125,14.982 C17.64875,14.982 17.791375,15.011 17.93575,15.033 C17.129,16.083 16.6355,17.454 16.629375,18.957 C16.629375,18.966 16.625,18.974 16.625,18.982 L16.625,18.994 L13.999125,18.994 L13.999125,18.982 C13.999125,16.776 15.568875,14.982 17.499125,14.982 Z M10.5,20.994 L24.499125,20.994 L24.499125,35.994 L10.5,35.994 L10.5,20.994 Z" id="Shape"></path>
            </g>
        </g>
    </g>
</svg>