<?xml version="1.0" encoding="UTF-8"?>
<svg width="90px" height="90px" viewBox="0 0 90 90" version="1.1" xmlns="http://www.w3.org/2000/svg" xmlns:xlink="http://www.w3.org/1999/xlink">
    <!-- Generator: Sketch 63.1 (92452) - https://sketch.com -->
    <title>Group 2</title>
    <desc>Created with Sketch.</desc>
    <g id="Page-1" stroke="none" stroke-width="1" fill="none" fill-rule="evenodd">
        <g id="Group-2">
            <circle id="Oval-Copy" fill="#4D4D4D" cx="45" cy="45" r="45"></circle>
            <circle id="Oval" fill="#FFFFFF" cx="45" cy="45" r="41"></circle>
            <path d="M61.3534688,47.0662867 L48.6228193,56.315645 C47.7312617,56.9633995 47.5335294,58.2138734 48.1827791,59.1074889 C48.8365552,60.0073345 50.0816831,60.1999903 50.9739603,59.551713 L68.7771807,46.6169162 C69.3061801,46.2325757 69.5909142,45.6360443 69.5993903,45.0277682 C69.6310746,44.3773024 69.3430148,43.7267475 68.7771807,43.315645 L50.9739603,30.3808482 C50.0824027,29.7330937 48.8320287,29.9314568 48.1827791,30.8250723 C47.529003,31.7249179 47.7305421,32.9686389 48.6228193,33.6169162 L61.628762,43.0662867 L21.9916575,43.0662867 C20.8988921,43.0662867 20,43.9617172 20,45.0662867 C20,46.178557 20.8916955,47.0662867 21.9916575,47.0662867 L61.3534688,47.0662867 L61.3534688,47.0662867 L61.3534688,47.0662867 Z" id="Path" fill="#000000" fill-rule="nonzero"></path>
        </g>
    </g>
</svg>